<?xml version="1.0" encoding="UTF-8"?>
<svg xmlns="http://www.w3.org/2000/svg" xmlns:xlink="http://www.w3.org/1999/xlink" width="512px" height="512px" viewBox="0 0 512 512" version="1.1">
<g id="surface1">
<path style=" stroke:none;fill-rule:nonzero;fill:rgb(0%,0%,0%);fill-opacity:1;" d="M 406.996094 152.203125 L 312.050781 152.203125 L 289.804688 174.449219 L 393.234375 174.449219 L 427.296875 242.746094 L 84.710938 242.746094 L 118.773438 174.449219 L 211.308594 174.449219 L 189.0625 152.203125 L 105.011719 152.203125 L 55.605469 251.253906 L 55.605469 512 L 456.398438 512 L 456.398438 251.253906 Z M 434.15625 489.753906 L 77.851562 489.753906 L 77.851562 264.996094 L 434.15625 264.996094 Z M 434.15625 489.753906 "/>
<path style=" stroke:none;fill-rule:nonzero;fill:rgb(0%,0%,0%);fill-opacity:1;" d="M 245.492188 197.523438 L 202.285156 197.523438 L 197.839844 210.871094 L 314.910156 210.871094 L 310.179688 197.523438 L 257.484375 197.523438 L 372.667969 82.347656 C 375.535156 79.484375 375.535156 74.855469 372.667969 71.996094 L 302.816406 2.144531 C 299.957031 -0.714844 295.320312 -0.714844 292.460938 2.144531 L 176.460938 118.152344 C 173.597656 121.007812 173.597656 125.640625 176.460938 128.5 Z M 287.503906 27.796875 L 270.351562 96.421875 L 202.03125 113.273438 Z M 278.128906 109.574219 C 279.449219 109.25 280.628906 108.574219 281.554688 107.644531 C 282.476562 106.71875 283.148438 105.554688 283.472656 104.242188 L 303.621094 23.652344 L 357.140625 77.171875 L 251.484375 182.820312 L 197.996094 129.339844 Z M 278.128906 109.574219 "/>
<path style=" stroke:none;fill-rule:nonzero;fill:rgb(0%,0%,0%);fill-opacity:1;" d="M 189.359375 475.925781 C 191.359375 477.925781 194.605469 477.925781 196.605469 475.925781 L 277.859375 394.679688 C 279.859375 392.679688 279.859375 389.4375 277.859375 387.429688 L 228.941406 338.507812 C 226.941406 336.507812 223.695312 336.507812 221.695312 338.507812 L 140.441406 419.757812 C 138.441406 421.757812 138.441406 425.003906 140.441406 427.003906 Z M 218.214844 356.480469 L 206.199219 404.539062 L 158.351562 416.339844 Z M 211.644531 413.753906 C 212.570312 413.527344 213.390625 413.054688 214.046875 412.40625 C 214.6875 411.757812 215.160156 410.941406 215.390625 410.023438 L 229.496094 353.582031 L 266.984375 391.0625 L 192.984375 465.0625 L 155.527344 427.601562 Z M 211.644531 413.753906 "/>
<path style=" stroke:none;fill-rule:nonzero;fill:rgb(0%,0%,0%);fill-opacity:1;" d="M 320.183594 412.605469 C 321.921875 414.832031 325.140625 415.230469 327.375 413.492188 L 381.933594 370.953125 C 384.160156 369.214844 384.558594 365.992188 382.820312 363.753906 L 312.164062 273.144531 C 310.425781 270.917969 307.203125 270.515625 304.972656 272.253906 L 250.414062 314.800781 C 248.1875 316.539062 247.792969 319.761719 249.53125 321.992188 Z M 365.414062 358.101562 L 319.191406 340.269531 L 313.363281 291.339844 Z M 302.539062 287.15625 L 309.390625 344.550781 C 309.5 345.492188 309.867188 346.375 310.4375 347.09375 C 311.003906 347.8125 311.75 348.386719 312.632812 348.726562 L 366.917969 369.664062 L 325.113281 402.269531 L 260.761719 319.730469 Z M 302.539062 287.15625 "/>
</g>
</svg>
