<?xml version="1.0" encoding="UTF-8"?>
<svg xmlns="http://www.w3.org/2000/svg" xmlns:xlink="http://www.w3.org/1999/xlink" width="192px" height="192px" viewBox="0 0 192 192" version="1.1">
<g id="surface1">
<path style=" stroke:none;fill-rule:nonzero;fill:rgb(0%,0%,0%);fill-opacity:1;" d="M 152.625 57.078125 L 117.019531 57.078125 L 108.675781 65.417969 L 147.460938 65.417969 L 160.238281 91.03125 L 31.765625 91.03125 L 44.539062 65.417969 L 79.242188 65.417969 L 70.898438 57.078125 L 39.378906 57.078125 L 20.851562 94.21875 L 20.851562 192 L 171.148438 192 L 171.148438 94.21875 Z M 162.808594 183.65625 L 29.195312 183.65625 L 29.195312 99.375 L 162.808594 99.375 Z M 162.808594 183.65625 "/>
<path style=" stroke:none;fill-rule:nonzero;fill:rgb(0%,0%,0%);fill-opacity:1;" d="M 92.058594 74.070312 L 75.859375 74.070312 L 74.1875 79.078125 L 118.089844 79.078125 L 116.316406 74.070312 L 96.554688 74.070312 L 139.75 30.878906 C 140.824219 29.808594 140.824219 28.070312 139.75 27 L 113.554688 0.804688 C 112.484375 -0.269531 110.746094 -0.269531 109.671875 0.804688 L 66.171875 44.308594 C 65.101562 45.378906 65.101562 47.117188 66.171875 48.1875 Z M 107.8125 10.425781 L 101.382812 36.160156 L 75.761719 42.476562 Z M 104.296875 41.089844 C 104.792969 40.96875 105.234375 40.714844 105.582031 40.367188 C 105.929688 40.019531 106.179688 39.582031 106.300781 39.089844 L 113.859375 8.867188 L 133.925781 28.9375 L 94.308594 68.558594 L 74.25 48.503906 Z M 104.296875 41.089844 "/>
<path style=" stroke:none;fill-rule:nonzero;fill:rgb(0%,0%,0%);fill-opacity:1;" d="M 71.007812 178.472656 C 71.761719 179.222656 72.976562 179.222656 73.726562 178.472656 L 104.195312 148.003906 C 104.949219 147.253906 104.949219 146.039062 104.195312 145.285156 L 85.851562 126.941406 C 85.101562 126.191406 83.886719 126.191406 83.136719 126.941406 L 52.664062 157.410156 C 51.914062 158.160156 51.914062 159.375 52.664062 160.125 Z M 81.832031 133.679688 L 77.324219 151.703125 L 59.382812 156.128906 Z M 79.367188 155.160156 C 79.714844 155.070312 80.019531 154.894531 80.265625 154.652344 C 80.507812 154.410156 80.683594 154.101562 80.769531 153.757812 L 86.0625 132.59375 L 100.121094 146.648438 L 72.371094 174.398438 L 58.324219 160.351562 Z M 79.367188 155.160156 "/>
<path style=" stroke:none;fill-rule:nonzero;fill:rgb(0%,0%,0%);fill-opacity:1;" d="M 120.070312 154.726562 C 120.722656 155.5625 121.925781 155.710938 122.765625 155.058594 L 143.226562 139.105469 C 144.058594 138.457031 144.210938 137.246094 143.558594 136.410156 L 117.0625 102.429688 C 116.410156 101.59375 115.199219 101.441406 114.363281 102.09375 L 93.90625 118.050781 C 93.070312 118.703125 92.921875 119.910156 93.574219 120.746094 Z M 137.03125 134.289062 L 119.695312 127.601562 L 117.511719 109.25 Z M 113.453125 107.683594 L 116.023438 129.207031 C 116.0625 129.558594 116.199219 129.890625 116.414062 130.160156 C 116.625 130.429688 116.90625 130.644531 117.238281 130.773438 L 137.59375 138.625 L 121.917969 150.851562 L 97.785156 119.898438 Z M 113.453125 107.683594 "/>
</g>
</svg>
