<?xml version="1.0" encoding="utf-8" standalone="no"?>
<!DOCTYPE svg PUBLIC "-//W3C//DTD SVG 1.1//EN"
  "http://www.w3.org/Graphics/SVG/1.1/DTD/svg11.dtd">
<svg xmlns:xlink="http://www.w3.org/1999/xlink" width="748.581729pt" height="337.274687pt" viewBox="0 0 748.581729 337.274687" xmlns="http://www.w3.org/2000/svg" version="1.1">
 <metadata>
  <rdf:RDF xmlns:dc="http://purl.org/dc/elements/1.1/" xmlns:cc="http://creativecommons.org/ns#" xmlns:rdf="http://www.w3.org/1999/02/22-rdf-syntax-ns#">
   <cc:Work>
    <dc:type rdf:resource="http://purl.org/dc/dcmitype/StillImage"/>
    <dc:date>2026-04-21T23:08:31.074421</dc:date>
    <dc:format>image/svg+xml</dc:format>
    <dc:creator>
     <cc:Agent>
      <dc:title>Matplotlib v3.10.8, https://matplotlib.org/</dc:title>
     </cc:Agent>
    </dc:creator>
   </cc:Work>
  </rdf:RDF>
 </metadata>
 <defs>
  <style type="text/css">*{stroke-linejoin: round; stroke-linecap: butt}</style>
 </defs>
 <g id="figure_1">
  <g id="patch_1">
   <path d="M 0 337.274687 
L 748.581729 337.274687 
L 748.581729 0 
L 0 0 
z
" style="fill: #ffffff"/>
  </g>
  <g id="axes_1">
   <g id="patch_2">
    <path d="M 37.569433 299.718437 
L 625.325317 299.718437 
L 625.325317 20.798437 
L 37.569433 20.798437 
z
" style="fill: #ffffff"/>
   </g>
   <g id="patch_3">
    <path d="M 84.250406 288.672101 
L 137.296966 288.672101 
L 137.296966 250.009923 
L 84.250406 250.009923 
z
" clip-path="url(#p6ad2ebea04)" style="fill: #fde2e2; stroke: #555555; stroke-width: 0.6; stroke-linejoin: miter"/>
   </g>
   <g id="patch_4">
    <path d="M 137.296966 288.672101 
L 222.171462 288.672101 
L 222.171462 250.009923 
L 137.296966 250.009923 
z
" clip-path="url(#p6ad2ebea04)" style="fill: #e2f2e2; stroke: #555555; stroke-width: 0.6; stroke-linejoin: miter"/>
   </g>
   <g id="patch_5">
    <path d="M 222.171462 288.672101 
L 307.045958 288.672101 
L 307.045958 250.009923 
L 222.171462 250.009923 
z
" clip-path="url(#p6ad2ebea04)" style="fill: #e2e2fd; stroke: #555555; stroke-width: 0.6; stroke-linejoin: miter"/>
   </g>
   <g id="patch_6">
    <path d="M 307.045958 288.672101 
L 391.920454 288.672101 
L 391.920454 250.009923 
L 307.045958 250.009923 
z
" clip-path="url(#p6ad2ebea04)" style="fill: #fdf2d2; stroke: #555555; stroke-width: 0.6; stroke-linejoin: miter"/>
   </g>
   <g id="patch_7">
    <path d="M 391.920454 288.672101 
L 476.79495 288.672101 
L 476.79495 250.009923 
L 391.920454 250.009923 
z
" clip-path="url(#p6ad2ebea04)" style="fill: #f2e2fd; stroke: #555555; stroke-width: 0.6; stroke-linejoin: miter"/>
   </g>
   <g id="patch_8">
    <path d="M 84.250406 236.202002 
L 153.210934 236.202002 
L 153.210934 197.539824 
L 84.250406 197.539824 
z
" clip-path="url(#p6ad2ebea04)" style="fill: #fde2e2; stroke: #555555; stroke-width: 0.6; stroke-linejoin: miter"/>
   </g>
   <g id="patch_9">
    <path d="M 153.210934 236.202002 
L 238.08543 236.202002 
L 238.08543 197.539824 
L 153.210934 197.539824 
z
" clip-path="url(#p6ad2ebea04)" style="fill: #e2f2e2; stroke: #555555; stroke-width: 0.6; stroke-linejoin: miter"/>
   </g>
   <g id="patch_10">
    <path d="M 238.08543 236.202002 
L 322.959926 236.202002 
L 322.959926 197.539824 
L 238.08543 197.539824 
z
" clip-path="url(#p6ad2ebea04)" style="fill: #e2e2fd; stroke: #555555; stroke-width: 0.6; stroke-linejoin: miter"/>
   </g>
   <g id="patch_11">
    <path d="M 322.959926 236.202002 
L 407.834422 236.202002 
L 407.834422 197.539824 
L 322.959926 197.539824 
z
" clip-path="url(#p6ad2ebea04)" style="fill: #fdf2d2; stroke: #555555; stroke-width: 0.6; stroke-linejoin: miter"/>
   </g>
   <g id="patch_12">
    <path d="M 407.834422 236.202002 
L 492.708918 236.202002 
L 492.708918 197.539824 
L 407.834422 197.539824 
z
" clip-path="url(#p6ad2ebea04)" style="fill: #f2e2fd; stroke: #555555; stroke-width: 0.6; stroke-linejoin: miter"/>
   </g>
   <g id="patch_13">
    <path d="M 84.250406 183.731903 
L 169.124902 183.731903 
L 169.124902 145.069725 
L 84.250406 145.069725 
z
" clip-path="url(#p6ad2ebea04)" style="fill: #fde2e2; stroke: #555555; stroke-width: 0.6; stroke-linejoin: miter"/>
   </g>
   <g id="patch_14">
    <path d="M 169.124902 183.731903 
L 253.999398 183.731903 
L 253.999398 145.069725 
L 169.124902 145.069725 
z
" clip-path="url(#p6ad2ebea04)" style="fill: #e2f2e2; stroke: #555555; stroke-width: 0.6; stroke-linejoin: miter"/>
   </g>
   <g id="patch_15">
    <path d="M 253.999398 183.731903 
L 338.873894 183.731903 
L 338.873894 145.069725 
L 253.999398 145.069725 
z
" clip-path="url(#p6ad2ebea04)" style="fill: #e2e2fd; stroke: #555555; stroke-width: 0.6; stroke-linejoin: miter"/>
   </g>
   <g id="patch_16">
    <path d="M 338.873894 183.731903 
L 423.74839 183.731903 
L 423.74839 145.069725 
L 338.873894 145.069725 
z
" clip-path="url(#p6ad2ebea04)" style="fill: #fdf2d2; stroke: #555555; stroke-width: 0.6; stroke-linejoin: miter"/>
   </g>
   <g id="patch_17">
    <path d="M 423.74839 183.731903 
L 508.622886 183.731903 
L 508.622886 145.069725 
L 423.74839 145.069725 
z
" clip-path="url(#p6ad2ebea04)" style="fill: #f2e2fd; stroke: #555555; stroke-width: 0.6; stroke-linejoin: miter"/>
   </g>
   <g id="patch_18">
    <path d="M 100.164374 131.261804 
L 185.03887 131.261804 
L 185.03887 92.599626 
L 100.164374 92.599626 
z
" clip-path="url(#p6ad2ebea04)" style="fill: #fde2e2; stroke: #555555; stroke-width: 0.6; stroke-linejoin: miter"/>
   </g>
   <g id="patch_19">
    <path d="M 185.03887 131.261804 
L 269.913366 131.261804 
L 269.913366 92.599626 
L 185.03887 92.599626 
z
" clip-path="url(#p6ad2ebea04)" style="fill: #e2f2e2; stroke: #555555; stroke-width: 0.6; stroke-linejoin: miter"/>
   </g>
   <g id="patch_20">
    <path d="M 269.913366 131.261804 
L 354.787862 131.261804 
L 354.787862 92.599626 
L 269.913366 92.599626 
z
" clip-path="url(#p6ad2ebea04)" style="fill: #e2e2fd; stroke: #555555; stroke-width: 0.6; stroke-linejoin: miter"/>
   </g>
   <g id="patch_21">
    <path d="M 354.787862 131.261804 
L 439.662358 131.261804 
L 439.662358 92.599626 
L 354.787862 92.599626 
z
" clip-path="url(#p6ad2ebea04)" style="fill: #fdf2d2; stroke: #555555; stroke-width: 0.6; stroke-linejoin: miter"/>
   </g>
   <g id="patch_22">
    <path d="M 439.662358 131.261804 
L 508.622886 131.261804 
L 508.622886 92.599626 
L 439.662358 92.599626 
z
" clip-path="url(#p6ad2ebea04)" style="fill: #f2e2fd; stroke: #555555; stroke-width: 0.6; stroke-linejoin: miter"/>
   </g>
   <g id="patch_23">
    <path d="M 116.078342 78.791705 
L 200.952838 78.791705 
L 200.952838 40.129527 
L 116.078342 40.129527 
z
" clip-path="url(#p6ad2ebea04)" style="fill: #fde2e2; stroke: #555555; stroke-width: 0.6; stroke-linejoin: miter"/>
   </g>
   <g id="patch_24">
    <path d="M 200.952838 78.791705 
L 285.827334 78.791705 
L 285.827334 40.129527 
L 200.952838 40.129527 
z
" clip-path="url(#p6ad2ebea04)" style="fill: #e2f2e2; stroke: #555555; stroke-width: 0.6; stroke-linejoin: miter"/>
   </g>
   <g id="patch_25">
    <path d="M 285.827334 78.791705 
L 370.70183 78.791705 
L 370.70183 40.129527 
L 285.827334 40.129527 
z
" clip-path="url(#p6ad2ebea04)" style="fill: #e2e2fd; stroke: #555555; stroke-width: 0.6; stroke-linejoin: miter"/>
   </g>
   <g id="patch_26">
    <path d="M 370.70183 78.791705 
L 455.576326 78.791705 
L 455.576326 40.129527 
L 370.70183 40.129527 
z
" clip-path="url(#p6ad2ebea04)" style="fill: #fdf2d2; stroke: #555555; stroke-width: 0.6; stroke-linejoin: miter"/>
   </g>
   <g id="patch_27">
    <path d="M 455.576326 78.791705 
L 508.622886 78.791705 
L 508.622886 40.129527 
L 455.576326 40.129527 
z
" clip-path="url(#p6ad2ebea04)" style="fill: #f2e2fd; stroke: #555555; stroke-width: 0.6; stroke-linejoin: miter"/>
   </g>
   <g id="matplotlib.axis_1">
    <g id="xtick_1">
     <g id="line2d_1">
      <defs>
       <path id="mb492121a1c" d="M 0 0 
L 0 3.5 
" style="stroke: #000000; stroke-width: 0.8"/>
      </defs>
      <g>
       <use xlink:href="#mb492121a1c" x="84.250406" y="299.718437" style="stroke: #000000; stroke-width: 0.8"/>
      </g>
     </g>
     <g id="text_1">
      <!-- −1.0 -->
      <g transform="translate(72.108999 314.316875) scale(0.1 -0.1)">
       <defs>
        <path id="DejaVuSans-2212" d="M 678 2272 
L 4684 2272 
L 4684 1741 
L 678 1741 
L 678 2272 
z
" transform="scale(0.015625)"/>
        <path id="DejaVuSans-31" d="M 794 531 
L 1825 531 
L 1825 4091 
L 703 3866 
L 703 4441 
L 1819 4666 
L 2450 4666 
L 2450 531 
L 3481 531 
L 3481 0 
L 794 0 
L 794 531 
z
" transform="scale(0.015625)"/>
        <path id="DejaVuSans-2e" d="M 684 794 
L 1344 794 
L 1344 0 
L 684 0 
L 684 794 
z
" transform="scale(0.015625)"/>
        <path id="DejaVuSans-30" d="M 2034 4250 
Q 1547 4250 1301 3770 
Q 1056 3291 1056 2328 
Q 1056 1369 1301 889 
Q 1547 409 2034 409 
Q 2525 409 2770 889 
Q 3016 1369 3016 2328 
Q 3016 3291 2770 3770 
Q 2525 4250 2034 4250 
z
M 2034 4750 
Q 2819 4750 3233 4129 
Q 3647 3509 3647 2328 
Q 3647 1150 3233 529 
Q 2819 -91 2034 -91 
Q 1250 -91 836 529 
Q 422 1150 422 2328 
Q 422 3509 836 4129 
Q 1250 4750 2034 4750 
z
" transform="scale(0.015625)"/>
       </defs>
       <use xlink:href="#DejaVuSans-2212"/>
       <use xlink:href="#DejaVuSans-31" transform="translate(83.789062 0)"/>
       <use xlink:href="#DejaVuSans-2e" transform="translate(147.412109 0)"/>
       <use xlink:href="#DejaVuSans-30" transform="translate(179.199219 0)"/>
      </g>
     </g>
    </g>
    <g id="xtick_2">
     <g id="line2d_2">
      <g>
       <use xlink:href="#mb492121a1c" x="169.124902" y="299.718437" style="stroke: #000000; stroke-width: 0.8"/>
      </g>
     </g>
     <g id="text_2">
      <!-- −0.6 -->
      <g transform="translate(156.983495 314.316875) scale(0.1 -0.1)">
       <defs>
        <path id="DejaVuSans-36" d="M 2113 2584 
Q 1688 2584 1439 2293 
Q 1191 2003 1191 1497 
Q 1191 994 1439 701 
Q 1688 409 2113 409 
Q 2538 409 2786 701 
Q 3034 994 3034 1497 
Q 3034 2003 2786 2293 
Q 2538 2584 2113 2584 
z
M 3366 4563 
L 3366 3988 
Q 3128 4100 2886 4159 
Q 2644 4219 2406 4219 
Q 1781 4219 1451 3797 
Q 1122 3375 1075 2522 
Q 1259 2794 1537 2939 
Q 1816 3084 2150 3084 
Q 2853 3084 3261 2657 
Q 3669 2231 3669 1497 
Q 3669 778 3244 343 
Q 2819 -91 2113 -91 
Q 1303 -91 875 529 
Q 447 1150 447 2328 
Q 447 3434 972 4092 
Q 1497 4750 2381 4750 
Q 2619 4750 2861 4703 
Q 3103 4656 3366 4563 
z
" transform="scale(0.015625)"/>
       </defs>
       <use xlink:href="#DejaVuSans-2212"/>
       <use xlink:href="#DejaVuSans-30" transform="translate(83.789062 0)"/>
       <use xlink:href="#DejaVuSans-2e" transform="translate(147.412109 0)"/>
       <use xlink:href="#DejaVuSans-36" transform="translate(179.199219 0)"/>
      </g>
     </g>
    </g>
    <g id="xtick_3">
     <g id="line2d_3">
      <g>
       <use xlink:href="#mb492121a1c" x="253.999398" y="299.718437" style="stroke: #000000; stroke-width: 0.8"/>
      </g>
     </g>
     <g id="text_3">
      <!-- −0.2 -->
      <g transform="translate(241.857991 314.316875) scale(0.1 -0.1)">
       <defs>
        <path id="DejaVuSans-32" d="M 1228 531 
L 3431 531 
L 3431 0 
L 469 0 
L 469 531 
Q 828 903 1448 1529 
Q 2069 2156 2228 2338 
Q 2531 2678 2651 2914 
Q 2772 3150 2772 3378 
Q 2772 3750 2511 3984 
Q 2250 4219 1831 4219 
Q 1534 4219 1204 4116 
Q 875 4013 500 3803 
L 500 4441 
Q 881 4594 1212 4672 
Q 1544 4750 1819 4750 
Q 2544 4750 2975 4387 
Q 3406 4025 3406 3419 
Q 3406 3131 3298 2873 
Q 3191 2616 2906 2266 
Q 2828 2175 2409 1742 
Q 1991 1309 1228 531 
z
" transform="scale(0.015625)"/>
       </defs>
       <use xlink:href="#DejaVuSans-2212"/>
       <use xlink:href="#DejaVuSans-30" transform="translate(83.789062 0)"/>
       <use xlink:href="#DejaVuSans-2e" transform="translate(147.412109 0)"/>
       <use xlink:href="#DejaVuSans-32" transform="translate(179.199219 0)"/>
      </g>
     </g>
    </g>
    <g id="xtick_4">
     <g id="line2d_4">
      <g>
       <use xlink:href="#mb492121a1c" x="338.873894" y="299.718437" style="stroke: #000000; stroke-width: 0.8"/>
      </g>
     </g>
     <g id="text_4">
      <!-- 0.2 -->
      <g transform="translate(330.922331 314.316875) scale(0.1 -0.1)">
       <use xlink:href="#DejaVuSans-30"/>
       <use xlink:href="#DejaVuSans-2e" transform="translate(63.623047 0)"/>
       <use xlink:href="#DejaVuSans-32" transform="translate(95.410156 0)"/>
      </g>
     </g>
    </g>
    <g id="xtick_5">
     <g id="line2d_5">
      <g>
       <use xlink:href="#mb492121a1c" x="423.74839" y="299.718437" style="stroke: #000000; stroke-width: 0.8"/>
      </g>
     </g>
     <g id="text_5">
      <!-- 0.6 -->
      <g transform="translate(415.796827 314.316875) scale(0.1 -0.1)">
       <use xlink:href="#DejaVuSans-30"/>
       <use xlink:href="#DejaVuSans-2e" transform="translate(63.623047 0)"/>
       <use xlink:href="#DejaVuSans-36" transform="translate(95.410156 0)"/>
      </g>
     </g>
    </g>
    <g id="xtick_6">
     <g id="line2d_6">
      <g>
       <use xlink:href="#mb492121a1c" x="508.622886" y="299.718437" style="stroke: #000000; stroke-width: 0.8"/>
      </g>
     </g>
     <g id="text_6">
      <!-- 1.0 -->
      <g transform="translate(500.671323 314.316875) scale(0.1 -0.1)">
       <use xlink:href="#DejaVuSans-31"/>
       <use xlink:href="#DejaVuSans-2e" transform="translate(63.623047 0)"/>
       <use xlink:href="#DejaVuSans-30" transform="translate(95.410156 0)"/>
      </g>
     </g>
    </g>
    <g id="text_7">
     <!-- Feature value (single component) -->
     <g transform="translate(247.141906 327.995) scale(0.1 -0.1)">
      <defs>
       <path id="DejaVuSans-46" d="M 628 4666 
L 3309 4666 
L 3309 4134 
L 1259 4134 
L 1259 2759 
L 3109 2759 
L 3109 2228 
L 1259 2228 
L 1259 0 
L 628 0 
L 628 4666 
z
" transform="scale(0.015625)"/>
       <path id="DejaVuSans-65" d="M 3597 1894 
L 3597 1613 
L 953 1613 
Q 991 1019 1311 708 
Q 1631 397 2203 397 
Q 2534 397 2845 478 
Q 3156 559 3463 722 
L 3463 178 
Q 3153 47 2828 -22 
Q 2503 -91 2169 -91 
Q 1331 -91 842 396 
Q 353 884 353 1716 
Q 353 2575 817 3079 
Q 1281 3584 2069 3584 
Q 2775 3584 3186 3129 
Q 3597 2675 3597 1894 
z
M 3022 2063 
Q 3016 2534 2758 2815 
Q 2500 3097 2075 3097 
Q 1594 3097 1305 2825 
Q 1016 2553 972 2059 
L 3022 2063 
z
" transform="scale(0.015625)"/>
       <path id="DejaVuSans-61" d="M 2194 1759 
Q 1497 1759 1228 1600 
Q 959 1441 959 1056 
Q 959 750 1161 570 
Q 1363 391 1709 391 
Q 2188 391 2477 730 
Q 2766 1069 2766 1631 
L 2766 1759 
L 2194 1759 
z
M 3341 1997 
L 3341 0 
L 2766 0 
L 2766 531 
Q 2569 213 2275 61 
Q 1981 -91 1556 -91 
Q 1019 -91 701 211 
Q 384 513 384 1019 
Q 384 1609 779 1909 
Q 1175 2209 1959 2209 
L 2766 2209 
L 2766 2266 
Q 2766 2663 2505 2880 
Q 2244 3097 1772 3097 
Q 1472 3097 1187 3025 
Q 903 2953 641 2809 
L 641 3341 
Q 956 3463 1253 3523 
Q 1550 3584 1831 3584 
Q 2591 3584 2966 3190 
Q 3341 2797 3341 1997 
z
" transform="scale(0.015625)"/>
       <path id="DejaVuSans-74" d="M 1172 4494 
L 1172 3500 
L 2356 3500 
L 2356 3053 
L 1172 3053 
L 1172 1153 
Q 1172 725 1289 603 
Q 1406 481 1766 481 
L 2356 481 
L 2356 0 
L 1766 0 
Q 1100 0 847 248 
Q 594 497 594 1153 
L 594 3053 
L 172 3053 
L 172 3500 
L 594 3500 
L 594 4494 
L 1172 4494 
z
" transform="scale(0.015625)"/>
       <path id="DejaVuSans-75" d="M 544 1381 
L 544 3500 
L 1119 3500 
L 1119 1403 
Q 1119 906 1312 657 
Q 1506 409 1894 409 
Q 2359 409 2629 706 
Q 2900 1003 2900 1516 
L 2900 3500 
L 3475 3500 
L 3475 0 
L 2900 0 
L 2900 538 
Q 2691 219 2414 64 
Q 2138 -91 1772 -91 
Q 1169 -91 856 284 
Q 544 659 544 1381 
z
M 1991 3584 
L 1991 3584 
z
" transform="scale(0.015625)"/>
       <path id="DejaVuSans-72" d="M 2631 2963 
Q 2534 3019 2420 3045 
Q 2306 3072 2169 3072 
Q 1681 3072 1420 2755 
Q 1159 2438 1159 1844 
L 1159 0 
L 581 0 
L 581 3500 
L 1159 3500 
L 1159 2956 
Q 1341 3275 1631 3429 
Q 1922 3584 2338 3584 
Q 2397 3584 2469 3576 
Q 2541 3569 2628 3553 
L 2631 2963 
z
" transform="scale(0.015625)"/>
       <path id="DejaVuSans-20" transform="scale(0.015625)"/>
       <path id="DejaVuSans-76" d="M 191 3500 
L 800 3500 
L 1894 563 
L 2988 3500 
L 3597 3500 
L 2284 0 
L 1503 0 
L 191 3500 
z
" transform="scale(0.015625)"/>
       <path id="DejaVuSans-6c" d="M 603 4863 
L 1178 4863 
L 1178 0 
L 603 0 
L 603 4863 
z
" transform="scale(0.015625)"/>
       <path id="DejaVuSans-28" d="M 1984 4856 
Q 1566 4138 1362 3434 
Q 1159 2731 1159 2009 
Q 1159 1288 1364 580 
Q 1569 -128 1984 -844 
L 1484 -844 
Q 1016 -109 783 600 
Q 550 1309 550 2009 
Q 550 2706 781 3412 
Q 1013 4119 1484 4856 
L 1984 4856 
z
" transform="scale(0.015625)"/>
       <path id="DejaVuSans-73" d="M 2834 3397 
L 2834 2853 
Q 2591 2978 2328 3040 
Q 2066 3103 1784 3103 
Q 1356 3103 1142 2972 
Q 928 2841 928 2578 
Q 928 2378 1081 2264 
Q 1234 2150 1697 2047 
L 1894 2003 
Q 2506 1872 2764 1633 
Q 3022 1394 3022 966 
Q 3022 478 2636 193 
Q 2250 -91 1575 -91 
Q 1294 -91 989 -36 
Q 684 19 347 128 
L 347 722 
Q 666 556 975 473 
Q 1284 391 1588 391 
Q 1994 391 2212 530 
Q 2431 669 2431 922 
Q 2431 1156 2273 1281 
Q 2116 1406 1581 1522 
L 1381 1569 
Q 847 1681 609 1914 
Q 372 2147 372 2553 
Q 372 3047 722 3315 
Q 1072 3584 1716 3584 
Q 2034 3584 2315 3537 
Q 2597 3491 2834 3397 
z
" transform="scale(0.015625)"/>
       <path id="DejaVuSans-69" d="M 603 3500 
L 1178 3500 
L 1178 0 
L 603 0 
L 603 3500 
z
M 603 4863 
L 1178 4863 
L 1178 4134 
L 603 4134 
L 603 4863 
z
" transform="scale(0.015625)"/>
       <path id="DejaVuSans-6e" d="M 3513 2113 
L 3513 0 
L 2938 0 
L 2938 2094 
Q 2938 2591 2744 2837 
Q 2550 3084 2163 3084 
Q 1697 3084 1428 2787 
Q 1159 2491 1159 1978 
L 1159 0 
L 581 0 
L 581 3500 
L 1159 3500 
L 1159 2956 
Q 1366 3272 1645 3428 
Q 1925 3584 2291 3584 
Q 2894 3584 3203 3211 
Q 3513 2838 3513 2113 
z
" transform="scale(0.015625)"/>
       <path id="DejaVuSans-67" d="M 2906 1791 
Q 2906 2416 2648 2759 
Q 2391 3103 1925 3103 
Q 1463 3103 1205 2759 
Q 947 2416 947 1791 
Q 947 1169 1205 825 
Q 1463 481 1925 481 
Q 2391 481 2648 825 
Q 2906 1169 2906 1791 
z
M 3481 434 
Q 3481 -459 3084 -895 
Q 2688 -1331 1869 -1331 
Q 1566 -1331 1297 -1286 
Q 1028 -1241 775 -1147 
L 775 -588 
Q 1028 -725 1275 -790 
Q 1522 -856 1778 -856 
Q 2344 -856 2625 -561 
Q 2906 -266 2906 331 
L 2906 616 
Q 2728 306 2450 153 
Q 2172 0 1784 0 
Q 1141 0 747 490 
Q 353 981 353 1791 
Q 353 2603 747 3093 
Q 1141 3584 1784 3584 
Q 2172 3584 2450 3431 
Q 2728 3278 2906 2969 
L 2906 3500 
L 3481 3500 
L 3481 434 
z
" transform="scale(0.015625)"/>
       <path id="DejaVuSans-63" d="M 3122 3366 
L 3122 2828 
Q 2878 2963 2633 3030 
Q 2388 3097 2138 3097 
Q 1578 3097 1268 2742 
Q 959 2388 959 1747 
Q 959 1106 1268 751 
Q 1578 397 2138 397 
Q 2388 397 2633 464 
Q 2878 531 3122 666 
L 3122 134 
Q 2881 22 2623 -34 
Q 2366 -91 2075 -91 
Q 1284 -91 818 406 
Q 353 903 353 1747 
Q 353 2603 823 3093 
Q 1294 3584 2113 3584 
Q 2378 3584 2631 3529 
Q 2884 3475 3122 3366 
z
" transform="scale(0.015625)"/>
       <path id="DejaVuSans-6f" d="M 1959 3097 
Q 1497 3097 1228 2736 
Q 959 2375 959 1747 
Q 959 1119 1226 758 
Q 1494 397 1959 397 
Q 2419 397 2687 759 
Q 2956 1122 2956 1747 
Q 2956 2369 2687 2733 
Q 2419 3097 1959 3097 
z
M 1959 3584 
Q 2709 3584 3137 3096 
Q 3566 2609 3566 1747 
Q 3566 888 3137 398 
Q 2709 -91 1959 -91 
Q 1206 -91 779 398 
Q 353 888 353 1747 
Q 353 2609 779 3096 
Q 1206 3584 1959 3584 
z
" transform="scale(0.015625)"/>
       <path id="DejaVuSans-6d" d="M 3328 2828 
Q 3544 3216 3844 3400 
Q 4144 3584 4550 3584 
Q 5097 3584 5394 3201 
Q 5691 2819 5691 2113 
L 5691 0 
L 5113 0 
L 5113 2094 
Q 5113 2597 4934 2840 
Q 4756 3084 4391 3084 
Q 3944 3084 3684 2787 
Q 3425 2491 3425 1978 
L 3425 0 
L 2847 0 
L 2847 2094 
Q 2847 2600 2669 2842 
Q 2491 3084 2119 3084 
Q 1678 3084 1418 2786 
Q 1159 2488 1159 1978 
L 1159 0 
L 581 0 
L 581 3500 
L 1159 3500 
L 1159 2956 
Q 1356 3278 1631 3431 
Q 1906 3584 2284 3584 
Q 2666 3584 2933 3390 
Q 3200 3197 3328 2828 
z
" transform="scale(0.015625)"/>
       <path id="DejaVuSans-70" d="M 1159 525 
L 1159 -1331 
L 581 -1331 
L 581 3500 
L 1159 3500 
L 1159 2969 
Q 1341 3281 1617 3432 
Q 1894 3584 2278 3584 
Q 2916 3584 3314 3078 
Q 3713 2572 3713 1747 
Q 3713 922 3314 415 
Q 2916 -91 2278 -91 
Q 1894 -91 1617 61 
Q 1341 213 1159 525 
z
M 3116 1747 
Q 3116 2381 2855 2742 
Q 2594 3103 2138 3103 
Q 1681 3103 1420 2742 
Q 1159 2381 1159 1747 
Q 1159 1113 1420 752 
Q 1681 391 2138 391 
Q 2594 391 2855 752 
Q 3116 1113 3116 1747 
z
" transform="scale(0.015625)"/>
       <path id="DejaVuSans-29" d="M 513 4856 
L 1013 4856 
Q 1481 4119 1714 3412 
Q 1947 2706 1947 2009 
Q 1947 1309 1714 600 
Q 1481 -109 1013 -844 
L 513 -844 
Q 928 -128 1133 580 
Q 1338 1288 1338 2009 
Q 1338 2731 1133 3434 
Q 928 4138 513 4856 
z
" transform="scale(0.015625)"/>
      </defs>
      <use xlink:href="#DejaVuSans-46"/>
      <use xlink:href="#DejaVuSans-65" transform="translate(52.019531 0)"/>
      <use xlink:href="#DejaVuSans-61" transform="translate(113.542969 0)"/>
      <use xlink:href="#DejaVuSans-74" transform="translate(174.822266 0)"/>
      <use xlink:href="#DejaVuSans-75" transform="translate(214.03125 0)"/>
      <use xlink:href="#DejaVuSans-72" transform="translate(277.410156 0)"/>
      <use xlink:href="#DejaVuSans-65" transform="translate(316.273438 0)"/>
      <use xlink:href="#DejaVuSans-20" transform="translate(377.796875 0)"/>
      <use xlink:href="#DejaVuSans-76" transform="translate(409.583984 0)"/>
      <use xlink:href="#DejaVuSans-61" transform="translate(468.763672 0)"/>
      <use xlink:href="#DejaVuSans-6c" transform="translate(530.042969 0)"/>
      <use xlink:href="#DejaVuSans-75" transform="translate(557.826172 0)"/>
      <use xlink:href="#DejaVuSans-65" transform="translate(621.205078 0)"/>
      <use xlink:href="#DejaVuSans-20" transform="translate(682.728516 0)"/>
      <use xlink:href="#DejaVuSans-28" transform="translate(714.515625 0)"/>
      <use xlink:href="#DejaVuSans-73" transform="translate(753.529297 0)"/>
      <use xlink:href="#DejaVuSans-69" transform="translate(805.628906 0)"/>
      <use xlink:href="#DejaVuSans-6e" transform="translate(833.412109 0)"/>
      <use xlink:href="#DejaVuSans-67" transform="translate(896.791016 0)"/>
      <use xlink:href="#DejaVuSans-6c" transform="translate(960.267578 0)"/>
      <use xlink:href="#DejaVuSans-65" transform="translate(988.050781 0)"/>
      <use xlink:href="#DejaVuSans-20" transform="translate(1049.574219 0)"/>
      <use xlink:href="#DejaVuSans-63" transform="translate(1081.361328 0)"/>
      <use xlink:href="#DejaVuSans-6f" transform="translate(1136.341797 0)"/>
      <use xlink:href="#DejaVuSans-6d" transform="translate(1197.523438 0)"/>
      <use xlink:href="#DejaVuSans-70" transform="translate(1294.935547 0)"/>
      <use xlink:href="#DejaVuSans-6f" transform="translate(1358.412109 0)"/>
      <use xlink:href="#DejaVuSans-6e" transform="translate(1419.59375 0)"/>
      <use xlink:href="#DejaVuSans-65" transform="translate(1482.972656 0)"/>
      <use xlink:href="#DejaVuSans-6e" transform="translate(1544.496094 0)"/>
      <use xlink:href="#DejaVuSans-74" transform="translate(1607.875 0)"/>
      <use xlink:href="#DejaVuSans-29" transform="translate(1647.083984 0)"/>
     </g>
    </g>
   </g>
   <g id="matplotlib.axis_2"/>
   <g id="line2d_7">
    <defs>
     <path id="m48194b5177" d="M 0 3.5 
C 0.928211 3.5 1.81853 3.131218 2.474874 2.474874 
C 3.131218 1.81853 3.5 0.928211 3.5 0 
C 3.5 -0.928211 3.131218 -1.81853 2.474874 -2.474874 
C 1.81853 -3.131218 0.928211 -3.5 0 -3.5 
C -0.928211 -3.5 -1.81853 -3.131218 -2.474874 -2.474874 
C -3.131218 -1.81853 -3.5 -0.928211 -3.5 0 
C -3.5 0.928211 -3.131218 1.81853 -2.474874 2.474874 
C -1.81853 3.131218 -0.928211 3.5 0 3.5 
z
" style="stroke: #000000"/>
    </defs>
    <g clip-path="url(#p6ad2ebea04)">
     <use xlink:href="#m48194b5177" x="383.433004" y="275.140338" style="stroke: #000000"/>
    </g>
   </g>
   <g id="line2d_8">
    <defs>
     <path id="md95156a515" d="M -5 5 
L 5 -5 
M -5 -5 
L 5 5 
" style="stroke: #000000; stroke-width: 2"/>
    </defs>
    <g clip-path="url(#p6ad2ebea04)">
     <use xlink:href="#md95156a515" x="398.286041" y="263.541685" style="stroke: #000000; stroke-width: 2"/>
    </g>
   </g>
   <g id="line2d_9">
    <g clip-path="url(#p6ad2ebea04)">
     <use xlink:href="#m48194b5177" x="383.433004" y="222.670239" style="stroke: #000000"/>
    </g>
   </g>
   <g id="line2d_10">
    <g clip-path="url(#p6ad2ebea04)">
     <use xlink:href="#md95156a515" x="398.286041" y="211.071586" style="stroke: #000000; stroke-width: 2"/>
    </g>
   </g>
   <g id="line2d_11">
    <g clip-path="url(#p6ad2ebea04)">
     <use xlink:href="#m48194b5177" x="383.433004" y="170.20014" style="stroke: #000000"/>
    </g>
   </g>
   <g id="line2d_12">
    <g clip-path="url(#p6ad2ebea04)">
     <use xlink:href="#md95156a515" x="398.286041" y="158.601487" style="stroke: #000000; stroke-width: 2"/>
    </g>
   </g>
   <g id="line2d_13">
    <g clip-path="url(#p6ad2ebea04)">
     <use xlink:href="#m48194b5177" x="383.433004" y="117.730041" style="stroke: #000000"/>
    </g>
   </g>
   <g id="line2d_14">
    <g clip-path="url(#p6ad2ebea04)">
     <use xlink:href="#md95156a515" x="398.286041" y="106.131388" style="stroke: #000000; stroke-width: 2"/>
    </g>
   </g>
   <g id="line2d_15">
    <g clip-path="url(#p6ad2ebea04)">
     <use xlink:href="#m48194b5177" x="383.433004" y="65.259942" style="stroke: #000000"/>
    </g>
   </g>
   <g id="line2d_16">
    <g clip-path="url(#p6ad2ebea04)">
     <use xlink:href="#md95156a515" x="398.286041" y="53.661289" style="stroke: #000000; stroke-width: 2"/>
    </g>
   </g>
   <g id="patch_28">
    <path d="M 37.569433 299.718437 
L 625.325317 299.718437 
" style="fill: none; stroke: #000000; stroke-width: 0.8; stroke-linejoin: miter; stroke-linecap: square"/>
   </g>
   <g id="text_8">
    <!-- bin 1 -->
    <g style="fill: #666666" transform="translate(102.022045 271.272574) scale(0.07 -0.07)">
     <defs>
      <path id="DejaVuSans-62" d="M 3116 1747 
Q 3116 2381 2855 2742 
Q 2594 3103 2138 3103 
Q 1681 3103 1420 2742 
Q 1159 2381 1159 1747 
Q 1159 1113 1420 752 
Q 1681 391 2138 391 
Q 2594 391 2855 752 
Q 3116 1113 3116 1747 
z
M 1159 2969 
Q 1341 3281 1617 3432 
Q 1894 3584 2278 3584 
Q 2916 3584 3314 3078 
Q 3713 2572 3713 1747 
Q 3713 922 3314 415 
Q 2916 -91 2278 -91 
Q 1894 -91 1617 61 
Q 1341 213 1159 525 
L 1159 0 
L 581 0 
L 581 4863 
L 1159 4863 
L 1159 2969 
z
" transform="scale(0.015625)"/>
     </defs>
     <use xlink:href="#DejaVuSans-62"/>
     <use xlink:href="#DejaVuSans-69" transform="translate(63.476562 0)"/>
     <use xlink:href="#DejaVuSans-6e" transform="translate(91.259766 0)"/>
     <use xlink:href="#DejaVuSans-20" transform="translate(154.638672 0)"/>
     <use xlink:href="#DejaVuSans-31" transform="translate(186.425781 0)"/>
    </g>
   </g>
   <g id="text_9">
    <!-- bin 2 -->
    <g style="fill: #666666" transform="translate(170.982573 271.272574) scale(0.07 -0.07)">
     <use xlink:href="#DejaVuSans-62"/>
     <use xlink:href="#DejaVuSans-69" transform="translate(63.476562 0)"/>
     <use xlink:href="#DejaVuSans-6e" transform="translate(91.259766 0)"/>
     <use xlink:href="#DejaVuSans-20" transform="translate(154.638672 0)"/>
     <use xlink:href="#DejaVuSans-32" transform="translate(186.425781 0)"/>
    </g>
   </g>
   <g id="text_10">
    <!-- bin 3 -->
    <g style="fill: #666666" transform="translate(255.857069 271.272574) scale(0.07 -0.07)">
     <defs>
      <path id="DejaVuSans-33" d="M 2597 2516 
Q 3050 2419 3304 2112 
Q 3559 1806 3559 1356 
Q 3559 666 3084 287 
Q 2609 -91 1734 -91 
Q 1441 -91 1130 -33 
Q 819 25 488 141 
L 488 750 
Q 750 597 1062 519 
Q 1375 441 1716 441 
Q 2309 441 2620 675 
Q 2931 909 2931 1356 
Q 2931 1769 2642 2001 
Q 2353 2234 1838 2234 
L 1294 2234 
L 1294 2753 
L 1863 2753 
Q 2328 2753 2575 2939 
Q 2822 3125 2822 3475 
Q 2822 3834 2567 4026 
Q 2313 4219 1838 4219 
Q 1578 4219 1281 4162 
Q 984 4106 628 3988 
L 628 4550 
Q 988 4650 1302 4700 
Q 1616 4750 1894 4750 
Q 2613 4750 3031 4423 
Q 3450 4097 3450 3541 
Q 3450 3153 3228 2886 
Q 3006 2619 2597 2516 
z
" transform="scale(0.015625)"/>
     </defs>
     <use xlink:href="#DejaVuSans-62"/>
     <use xlink:href="#DejaVuSans-69" transform="translate(63.476562 0)"/>
     <use xlink:href="#DejaVuSans-6e" transform="translate(91.259766 0)"/>
     <use xlink:href="#DejaVuSans-20" transform="translate(154.638672 0)"/>
     <use xlink:href="#DejaVuSans-33" transform="translate(186.425781 0)"/>
    </g>
   </g>
   <g id="text_11">
    <!-- bin 4 -->
    <g style="fill: #666666" transform="translate(340.731565 271.272574) scale(0.07 -0.07)">
     <defs>
      <path id="DejaVuSans-34" d="M 2419 4116 
L 825 1625 
L 2419 1625 
L 2419 4116 
z
M 2253 4666 
L 3047 4666 
L 3047 1625 
L 3713 1625 
L 3713 1100 
L 3047 1100 
L 3047 0 
L 2419 0 
L 2419 1100 
L 313 1100 
L 313 1709 
L 2253 4666 
z
" transform="scale(0.015625)"/>
     </defs>
     <use xlink:href="#DejaVuSans-62"/>
     <use xlink:href="#DejaVuSans-69" transform="translate(63.476562 0)"/>
     <use xlink:href="#DejaVuSans-6e" transform="translate(91.259766 0)"/>
     <use xlink:href="#DejaVuSans-20" transform="translate(154.638672 0)"/>
     <use xlink:href="#DejaVuSans-34" transform="translate(186.425781 0)"/>
    </g>
   </g>
   <g id="text_12">
    <!-- bin 5 -->
    <g style="fill: #666666" transform="translate(425.606061 271.272574) scale(0.07 -0.07)">
     <defs>
      <path id="DejaVuSans-35" d="M 691 4666 
L 3169 4666 
L 3169 4134 
L 1269 4134 
L 1269 2991 
Q 1406 3038 1543 3061 
Q 1681 3084 1819 3084 
Q 2600 3084 3056 2656 
Q 3513 2228 3513 1497 
Q 3513 744 3044 326 
Q 2575 -91 1722 -91 
Q 1428 -91 1123 -41 
Q 819 9 494 109 
L 494 744 
Q 775 591 1075 516 
Q 1375 441 1709 441 
Q 2250 441 2565 725 
Q 2881 1009 2881 1497 
Q 2881 1984 2565 2268 
Q 2250 2553 1709 2553 
Q 1456 2553 1204 2497 
Q 953 2441 691 2322 
L 691 4666 
z
" transform="scale(0.015625)"/>
     </defs>
     <use xlink:href="#DejaVuSans-62"/>
     <use xlink:href="#DejaVuSans-69" transform="translate(63.476562 0)"/>
     <use xlink:href="#DejaVuSans-6e" transform="translate(91.259766 0)"/>
     <use xlink:href="#DejaVuSans-20" transform="translate(154.638672 0)"/>
     <use xlink:href="#DejaVuSans-35" transform="translate(186.425781 0)"/>
    </g>
   </g>
   <g id="text_13">
    <!-- offset = -0.15 -->
    <g transform="translate(11.494688 271.824449) scale(0.09 -0.09)">
     <defs>
      <path id="DejaVuSans-66" d="M 2375 4863 
L 2375 4384 
L 1825 4384 
Q 1516 4384 1395 4259 
Q 1275 4134 1275 3809 
L 1275 3500 
L 2222 3500 
L 2222 3053 
L 1275 3053 
L 1275 0 
L 697 0 
L 697 3053 
L 147 3053 
L 147 3500 
L 697 3500 
L 697 3744 
Q 697 4328 969 4595 
Q 1241 4863 1831 4863 
L 2375 4863 
z
" transform="scale(0.015625)"/>
      <path id="DejaVuSans-3d" d="M 678 2906 
L 4684 2906 
L 4684 2381 
L 678 2381 
L 678 2906 
z
M 678 1631 
L 4684 1631 
L 4684 1100 
L 678 1100 
L 678 1631 
z
" transform="scale(0.015625)"/>
      <path id="DejaVuSans-2d" d="M 313 2009 
L 1997 2009 
L 1997 1497 
L 313 1497 
L 313 2009 
z
" transform="scale(0.015625)"/>
     </defs>
     <use xlink:href="#DejaVuSans-6f"/>
     <use xlink:href="#DejaVuSans-66" transform="translate(61.181641 0)"/>
     <use xlink:href="#DejaVuSans-66" transform="translate(96.386719 0)"/>
     <use xlink:href="#DejaVuSans-73" transform="translate(131.591797 0)"/>
     <use xlink:href="#DejaVuSans-65" transform="translate(183.691406 0)"/>
     <use xlink:href="#DejaVuSans-74" transform="translate(245.214844 0)"/>
     <use xlink:href="#DejaVuSans-20" transform="translate(284.423828 0)"/>
     <use xlink:href="#DejaVuSans-3d" transform="translate(316.210938 0)"/>
     <use xlink:href="#DejaVuSans-20" transform="translate(400 0)"/>
     <use xlink:href="#DejaVuSans-2d" transform="translate(431.787109 0)"/>
     <use xlink:href="#DejaVuSans-30" transform="translate(467.871094 0)"/>
     <use xlink:href="#DejaVuSans-2e" transform="translate(531.494141 0)"/>
     <use xlink:href="#DejaVuSans-31" transform="translate(563.28125 0)"/>
     <use xlink:href="#DejaVuSans-35" transform="translate(626.904297 0)"/>
    </g>
   </g>
   <g id="text_14">
    <!-- enrol → bin 4   verify → bin 5   mismatch -->
    <g style="fill: #aa0000" transform="translate(519.232198 271.848356) scale(0.09 -0.09)">
     <defs>
      <path id="DejaVuSansMono-65" d="M 3475 1894 
L 3475 1613 
L 984 1613 
L 984 1594 
Q 984 1022 1282 709 
Q 1581 397 2125 397 
Q 2400 397 2700 484 
Q 3000 572 3341 750 
L 3341 178 
Q 3013 44 2708 -23 
Q 2403 -91 2119 -91 
Q 1303 -91 843 398 
Q 384 888 384 1747 
Q 384 2584 834 3084 
Q 1284 3584 2034 3584 
Q 2703 3584 3089 3131 
Q 3475 2678 3475 1894 
z
M 2900 2063 
Q 2888 2569 2661 2833 
Q 2434 3097 2009 3097 
Q 1594 3097 1325 2822 
Q 1056 2547 1006 2059 
L 2900 2063 
z
" transform="scale(0.015625)"/>
      <path id="DejaVuSansMono-6e" d="M 3284 2169 
L 3284 0 
L 2706 0 
L 2706 2169 
Q 2706 2641 2540 2862 
Q 2375 3084 2022 3084 
Q 1619 3084 1401 2798 
Q 1184 2513 1184 1978 
L 1184 0 
L 609 0 
L 609 3500 
L 1184 3500 
L 1184 2975 
Q 1338 3275 1600 3429 
Q 1863 3584 2222 3584 
Q 2756 3584 3020 3232 
Q 3284 2881 3284 2169 
z
" transform="scale(0.015625)"/>
      <path id="DejaVuSansMono-72" d="M 3609 2778 
Q 3425 2922 3234 2987 
Q 3044 3053 2816 3053 
Q 2278 3053 1993 2715 
Q 1709 2378 1709 1741 
L 1709 0 
L 1131 0 
L 1131 3500 
L 1709 3500 
L 1709 2816 
Q 1853 3188 2151 3386 
Q 2450 3584 2859 3584 
Q 3072 3584 3256 3531 
Q 3441 3478 3609 3366 
L 3609 2778 
z
" transform="scale(0.015625)"/>
      <path id="DejaVuSansMono-6f" d="M 1925 3097 
Q 1488 3097 1263 2756 
Q 1038 2416 1038 1747 
Q 1038 1081 1263 739 
Q 1488 397 1925 397 
Q 2366 397 2591 739 
Q 2816 1081 2816 1747 
Q 2816 2416 2591 2756 
Q 2366 3097 1925 3097 
z
M 1925 3584 
Q 2653 3584 3039 3112 
Q 3425 2641 3425 1747 
Q 3425 850 3040 379 
Q 2656 -91 1925 -91 
Q 1197 -91 812 379 
Q 428 850 428 1747 
Q 428 2641 812 3112 
Q 1197 3584 1925 3584 
z
" transform="scale(0.015625)"/>
      <path id="DejaVuSansMono-6c" d="M 1997 1269 
Q 1997 881 2139 684 
Q 2281 488 2559 488 
L 3231 488 
L 3231 0 
L 2503 0 
Q 1988 0 1705 331 
Q 1422 663 1422 1269 
L 1422 4447 
L 500 4447 
L 500 4897 
L 1997 4897 
L 1997 1269 
z
" transform="scale(0.015625)"/>
      <path id="DejaVuSansMono-20" transform="scale(0.015625)"/>
      <path id="DejaVuSansMono-2192" d="M 3647 1625 
L 2738 716 
L 2456 997 
L 2956 1497 
L 206 1497 
L 206 2009 
L 2956 2009 
L 2456 2509 
L 2738 2791 
L 3647 1881 
L 3647 1625 
z
" transform="scale(0.015625)"/>
      <path id="DejaVuSansMono-62" d="M 2869 1747 
Q 2869 2416 2656 2756 
Q 2444 3097 2028 3097 
Q 1609 3097 1393 2755 
Q 1178 2413 1178 1747 
Q 1178 1084 1393 740 
Q 1609 397 2028 397 
Q 2444 397 2656 737 
Q 2869 1078 2869 1747 
z
M 1178 3053 
Q 1316 3309 1558 3446 
Q 1800 3584 2119 3584 
Q 2750 3584 3112 3098 
Q 3475 2613 3475 1759 
Q 3475 894 3111 401 
Q 2747 -91 2113 -91 
Q 1800 -91 1561 45 
Q 1322 181 1178 441 
L 1178 0 
L 603 0 
L 603 4863 
L 1178 4863 
L 1178 3053 
z
" transform="scale(0.015625)"/>
      <path id="DejaVuSansMono-69" d="M 800 3500 
L 2272 3500 
L 2272 447 
L 3413 447 
L 3413 0 
L 556 0 
L 556 447 
L 1697 447 
L 1697 3053 
L 800 3053 
L 800 3500 
z
M 1697 4863 
L 2272 4863 
L 2272 4134 
L 1697 4134 
L 1697 4863 
z
" transform="scale(0.015625)"/>
      <path id="DejaVuSansMono-34" d="M 2297 4091 
L 825 1625 
L 2297 1625 
L 2297 4091 
z
M 2194 4666 
L 2925 4666 
L 2925 1625 
L 3547 1625 
L 3547 1113 
L 2925 1113 
L 2925 0 
L 2297 0 
L 2297 1113 
L 319 1113 
L 319 1709 
L 2194 4666 
z
" transform="scale(0.015625)"/>
      <path id="DejaVuSansMono-76" d="M 313 3500 
L 909 3500 
L 1925 563 
L 2944 3500 
L 3541 3500 
L 2297 0 
L 1556 0 
L 313 3500 
z
" transform="scale(0.015625)"/>
      <path id="DejaVuSansMono-66" d="M 3322 4863 
L 3322 4384 
L 2669 4384 
Q 2359 4384 2239 4257 
Q 2119 4131 2119 3809 
L 2119 3500 
L 3322 3500 
L 3322 3053 
L 2119 3053 
L 2119 0 
L 1544 0 
L 1544 3053 
L 609 3053 
L 609 3500 
L 1544 3500 
L 1544 3744 
Q 1544 4319 1808 4591 
Q 2072 4863 2631 4863 
L 3322 4863 
z
" transform="scale(0.015625)"/>
      <path id="DejaVuSansMono-79" d="M 2681 1125 
Q 2538 759 2316 163 
Q 2006 -663 1900 -844 
Q 1756 -1088 1540 -1209 
Q 1325 -1331 1038 -1331 
L 575 -1331 
L 575 -850 
L 916 -850 
Q 1169 -850 1312 -703 
Q 1456 -556 1678 56 
L 325 3500 
L 934 3500 
L 1972 763 
L 2994 3500 
L 3603 3500 
L 2681 1125 
z
" transform="scale(0.015625)"/>
      <path id="DejaVuSansMono-35" d="M 647 4666 
L 3009 4666 
L 3009 4134 
L 1222 4134 
L 1222 2988 
Q 1356 3038 1492 3061 
Q 1628 3084 1766 3084 
Q 2491 3084 2916 2656 
Q 3341 2228 3341 1497 
Q 3341 759 2895 334 
Q 2450 -91 1678 -91 
Q 1306 -91 998 -41 
Q 691 9 447 109 
L 447 750 
Q 734 594 1025 517 
Q 1316 441 1619 441 
Q 2141 441 2423 716 
Q 2706 991 2706 1497 
Q 2706 1997 2414 2275 
Q 2122 2553 1600 2553 
Q 1347 2553 1106 2495 
Q 866 2438 647 2322 
L 647 4666 
z
" transform="scale(0.015625)"/>
      <path id="DejaVuSansMono-6d" d="M 2113 3144 
Q 2219 3369 2383 3476 
Q 2547 3584 2778 3584 
Q 3200 3584 3373 3257 
Q 3547 2931 3547 2028 
L 3547 0 
L 3022 0 
L 3022 2003 
Q 3022 2744 2939 2923 
Q 2856 3103 2638 3103 
Q 2388 3103 2295 2911 
Q 2203 2719 2203 2003 
L 2203 0 
L 1678 0 
L 1678 2003 
Q 1678 2753 1589 2928 
Q 1500 3103 1269 3103 
Q 1041 3103 952 2911 
Q 863 2719 863 2003 
L 863 0 
L 341 0 
L 341 3500 
L 863 3500 
L 863 3200 
Q 966 3388 1120 3486 
Q 1275 3584 1472 3584 
Q 1709 3584 1867 3475 
Q 2025 3366 2113 3144 
z
" transform="scale(0.015625)"/>
      <path id="DejaVuSansMono-73" d="M 3041 3378 
L 3041 2816 
Q 2794 2959 2544 3031 
Q 2294 3103 2034 3103 
Q 1644 3103 1451 2976 
Q 1259 2850 1259 2591 
Q 1259 2356 1403 2240 
Q 1547 2125 2119 2016 
L 2350 1972 
Q 2778 1891 2998 1647 
Q 3219 1403 3219 1013 
Q 3219 494 2850 201 
Q 2481 -91 1825 -91 
Q 1566 -91 1281 -36 
Q 997 19 666 128 
L 666 722 
Q 988 556 1281 473 
Q 1575 391 1838 391 
Q 2219 391 2428 545 
Q 2638 700 2638 978 
Q 2638 1378 1872 1531 
L 1847 1538 
L 1631 1581 
Q 1134 1678 906 1908 
Q 678 2138 678 2534 
Q 678 3038 1018 3311 
Q 1359 3584 1991 3584 
Q 2272 3584 2531 3532 
Q 2791 3481 3041 3378 
z
" transform="scale(0.015625)"/>
      <path id="DejaVuSansMono-61" d="M 2194 1759 
L 2003 1759 
Q 1500 1759 1245 1582 
Q 991 1406 991 1056 
Q 991 741 1181 566 
Q 1372 391 1709 391 
Q 2184 391 2456 720 
Q 2728 1050 2731 1631 
L 2731 1759 
L 2194 1759 
z
M 3309 1997 
L 3309 0 
L 2731 0 
L 2731 519 
Q 2547 206 2267 57 
Q 1988 -91 1588 -91 
Q 1053 -91 734 211 
Q 416 513 416 1019 
Q 416 1603 808 1906 
Q 1200 2209 1959 2209 
L 2731 2209 
L 2731 2300 
Q 2728 2719 2518 2908 
Q 2309 3097 1850 3097 
Q 1556 3097 1256 3012 
Q 956 2928 672 2766 
L 672 3341 
Q 991 3463 1283 3523 
Q 1575 3584 1850 3584 
Q 2284 3584 2592 3456 
Q 2900 3328 3091 3072 
Q 3209 2916 3259 2686 
Q 3309 2456 3309 1997 
z
" transform="scale(0.015625)"/>
      <path id="DejaVuSansMono-74" d="M 1919 4494 
L 1919 3500 
L 3225 3500 
L 3225 3053 
L 1919 3053 
L 1919 1153 
Q 1919 766 2066 612 
Q 2213 459 2578 459 
L 3225 459 
L 3225 0 
L 2522 0 
Q 1875 0 1609 259 
Q 1344 519 1344 1153 
L 1344 3053 
L 409 3053 
L 409 3500 
L 1344 3500 
L 1344 4494 
L 1919 4494 
z
" transform="scale(0.015625)"/>
      <path id="DejaVuSansMono-63" d="M 3316 178 
Q 3084 44 2839 -23 
Q 2594 -91 2338 -91 
Q 1525 -91 1067 396 
Q 609 884 609 1747 
Q 609 2609 1067 3096 
Q 1525 3584 2338 3584 
Q 2591 3584 2831 3518 
Q 3072 3453 3316 3316 
L 3316 2713 
Q 3088 2916 2858 3006 
Q 2628 3097 2338 3097 
Q 1797 3097 1506 2747 
Q 1216 2397 1216 1747 
Q 1216 1100 1508 748 
Q 1800 397 2338 397 
Q 2638 397 2875 489 
Q 3113 581 3316 775 
L 3316 178 
z
" transform="scale(0.015625)"/>
      <path id="DejaVuSansMono-68" d="M 3284 2169 
L 3284 0 
L 2706 0 
L 2706 2169 
Q 2706 2641 2540 2862 
Q 2375 3084 2022 3084 
Q 1619 3084 1401 2798 
Q 1184 2513 1184 1978 
L 1184 0 
L 609 0 
L 609 4863 
L 1184 4863 
L 1184 2975 
Q 1338 3275 1600 3429 
Q 1863 3584 2222 3584 
Q 2756 3584 3020 3232 
Q 3284 2881 3284 2169 
z
" transform="scale(0.015625)"/>
     </defs>
     <use xlink:href="#DejaVuSansMono-65"/>
     <use xlink:href="#DejaVuSansMono-6e" transform="translate(60.205078 0)"/>
     <use xlink:href="#DejaVuSansMono-72" transform="translate(120.410156 0)"/>
     <use xlink:href="#DejaVuSansMono-6f" transform="translate(180.615234 0)"/>
     <use xlink:href="#DejaVuSansMono-6c" transform="translate(240.820312 0)"/>
     <use xlink:href="#DejaVuSansMono-20" transform="translate(301.025391 0)"/>
     <use xlink:href="#DejaVuSansMono-2192" transform="translate(361.230469 0)"/>
     <use xlink:href="#DejaVuSansMono-20" transform="translate(421.435547 0)"/>
     <use xlink:href="#DejaVuSansMono-62" transform="translate(481.640625 0)"/>
     <use xlink:href="#DejaVuSansMono-69" transform="translate(541.845703 0)"/>
     <use xlink:href="#DejaVuSansMono-6e" transform="translate(602.050781 0)"/>
     <use xlink:href="#DejaVuSansMono-20" transform="translate(662.255859 0)"/>
     <use xlink:href="#DejaVuSansMono-34" transform="translate(722.460938 0)"/>
     <use xlink:href="#DejaVuSansMono-20" transform="translate(782.666016 0)"/>
     <use xlink:href="#DejaVuSansMono-20" transform="translate(842.871094 0)"/>
     <use xlink:href="#DejaVuSansMono-20" transform="translate(903.076172 0)"/>
     <use xlink:href="#DejaVuSansMono-76" transform="translate(963.28125 0)"/>
     <use xlink:href="#DejaVuSansMono-65" transform="translate(1023.486328 0)"/>
     <use xlink:href="#DejaVuSansMono-72" transform="translate(1083.691406 0)"/>
     <use xlink:href="#DejaVuSansMono-69" transform="translate(1143.896484 0)"/>
     <use xlink:href="#DejaVuSansMono-66" transform="translate(1204.101562 0)"/>
     <use xlink:href="#DejaVuSansMono-79" transform="translate(1264.306641 0)"/>
     <use xlink:href="#DejaVuSansMono-20" transform="translate(1324.511719 0)"/>
     <use xlink:href="#DejaVuSansMono-2192" transform="translate(1384.716797 0)"/>
     <use xlink:href="#DejaVuSansMono-20" transform="translate(1444.921875 0)"/>
     <use xlink:href="#DejaVuSansMono-62" transform="translate(1505.126953 0)"/>
     <use xlink:href="#DejaVuSansMono-69" transform="translate(1565.332031 0)"/>
     <use xlink:href="#DejaVuSansMono-6e" transform="translate(1625.537109 0)"/>
     <use xlink:href="#DejaVuSansMono-20" transform="translate(1685.742188 0)"/>
     <use xlink:href="#DejaVuSansMono-35" transform="translate(1745.947266 0)"/>
     <use xlink:href="#DejaVuSansMono-20" transform="translate(1806.152344 0)"/>
     <use xlink:href="#DejaVuSansMono-20" transform="translate(1866.357422 0)"/>
     <use xlink:href="#DejaVuSansMono-20" transform="translate(1926.5625 0)"/>
     <use xlink:href="#DejaVuSansMono-6d" transform="translate(1986.767578 0)"/>
     <use xlink:href="#DejaVuSansMono-69" transform="translate(2046.972656 0)"/>
     <use xlink:href="#DejaVuSansMono-73" transform="translate(2107.177734 0)"/>
     <use xlink:href="#DejaVuSansMono-6d" transform="translate(2167.382812 0)"/>
     <use xlink:href="#DejaVuSansMono-61" transform="translate(2227.587891 0)"/>
     <use xlink:href="#DejaVuSansMono-74" transform="translate(2287.792969 0)"/>
     <use xlink:href="#DejaVuSansMono-63" transform="translate(2347.998047 0)"/>
     <use xlink:href="#DejaVuSansMono-68" transform="translate(2408.203125 0)"/>
    </g>
   </g>
   <g id="text_15">
    <!-- bin 1 -->
    <g style="fill: #666666" transform="translate(109.979029 218.802475) scale(0.07 -0.07)">
     <use xlink:href="#DejaVuSans-62"/>
     <use xlink:href="#DejaVuSans-69" transform="translate(63.476562 0)"/>
     <use xlink:href="#DejaVuSans-6e" transform="translate(91.259766 0)"/>
     <use xlink:href="#DejaVuSans-20" transform="translate(154.638672 0)"/>
     <use xlink:href="#DejaVuSans-31" transform="translate(186.425781 0)"/>
    </g>
   </g>
   <g id="text_16">
    <!-- bin 2 -->
    <g style="fill: #666666" transform="translate(186.896541 218.802475) scale(0.07 -0.07)">
     <use xlink:href="#DejaVuSans-62"/>
     <use xlink:href="#DejaVuSans-69" transform="translate(63.476562 0)"/>
     <use xlink:href="#DejaVuSans-6e" transform="translate(91.259766 0)"/>
     <use xlink:href="#DejaVuSans-20" transform="translate(154.638672 0)"/>
     <use xlink:href="#DejaVuSans-32" transform="translate(186.425781 0)"/>
    </g>
   </g>
   <g id="text_17">
    <!-- bin 3 -->
    <g style="fill: #666666" transform="translate(271.771037 218.802475) scale(0.07 -0.07)">
     <use xlink:href="#DejaVuSans-62"/>
     <use xlink:href="#DejaVuSans-69" transform="translate(63.476562 0)"/>
     <use xlink:href="#DejaVuSans-6e" transform="translate(91.259766 0)"/>
     <use xlink:href="#DejaVuSans-20" transform="translate(154.638672 0)"/>
     <use xlink:href="#DejaVuSans-33" transform="translate(186.425781 0)"/>
    </g>
   </g>
   <g id="text_18">
    <!-- bin 4 -->
    <g style="fill: #666666" transform="translate(356.645533 218.802475) scale(0.07 -0.07)">
     <use xlink:href="#DejaVuSans-62"/>
     <use xlink:href="#DejaVuSans-69" transform="translate(63.476562 0)"/>
     <use xlink:href="#DejaVuSans-6e" transform="translate(91.259766 0)"/>
     <use xlink:href="#DejaVuSans-20" transform="translate(154.638672 0)"/>
     <use xlink:href="#DejaVuSans-34" transform="translate(186.425781 0)"/>
    </g>
   </g>
   <g id="text_19">
    <!-- bin 5 -->
    <g style="fill: #666666" transform="translate(441.520029 218.802475) scale(0.07 -0.07)">
     <use xlink:href="#DejaVuSans-62"/>
     <use xlink:href="#DejaVuSans-69" transform="translate(63.476562 0)"/>
     <use xlink:href="#DejaVuSans-6e" transform="translate(91.259766 0)"/>
     <use xlink:href="#DejaVuSans-20" transform="translate(154.638672 0)"/>
     <use xlink:href="#DejaVuSans-35" transform="translate(186.425781 0)"/>
    </g>
   </g>
   <g id="text_20">
    <!-- offset = -0.07 -->
    <g transform="translate(11.494688 219.35435) scale(0.09 -0.09)">
     <defs>
      <path id="DejaVuSans-37" d="M 525 4666 
L 3525 4666 
L 3525 4397 
L 1831 0 
L 1172 0 
L 2766 4134 
L 525 4134 
L 525 4666 
z
" transform="scale(0.015625)"/>
     </defs>
     <use xlink:href="#DejaVuSans-6f"/>
     <use xlink:href="#DejaVuSans-66" transform="translate(61.181641 0)"/>
     <use xlink:href="#DejaVuSans-66" transform="translate(96.386719 0)"/>
     <use xlink:href="#DejaVuSans-73" transform="translate(131.591797 0)"/>
     <use xlink:href="#DejaVuSans-65" transform="translate(183.691406 0)"/>
     <use xlink:href="#DejaVuSans-74" transform="translate(245.214844 0)"/>
     <use xlink:href="#DejaVuSans-20" transform="translate(284.423828 0)"/>
     <use xlink:href="#DejaVuSans-3d" transform="translate(316.210938 0)"/>
     <use xlink:href="#DejaVuSans-20" transform="translate(400 0)"/>
     <use xlink:href="#DejaVuSans-2d" transform="translate(431.787109 0)"/>
     <use xlink:href="#DejaVuSans-30" transform="translate(467.871094 0)"/>
     <use xlink:href="#DejaVuSans-2e" transform="translate(531.494141 0)"/>
     <use xlink:href="#DejaVuSans-30" transform="translate(563.28125 0)"/>
     <use xlink:href="#DejaVuSans-37" transform="translate(626.904297 0)"/>
    </g>
   </g>
   <g id="text_21">
    <!-- enrol → bin 4   verify → bin 4   match -->
    <g style="fill: #0a7f2e" transform="translate(519.232198 219.378256) scale(0.09 -0.09)">
     <use xlink:href="#DejaVuSansMono-65"/>
     <use xlink:href="#DejaVuSansMono-6e" transform="translate(60.205078 0)"/>
     <use xlink:href="#DejaVuSansMono-72" transform="translate(120.410156 0)"/>
     <use xlink:href="#DejaVuSansMono-6f" transform="translate(180.615234 0)"/>
     <use xlink:href="#DejaVuSansMono-6c" transform="translate(240.820312 0)"/>
     <use xlink:href="#DejaVuSansMono-20" transform="translate(301.025391 0)"/>
     <use xlink:href="#DejaVuSansMono-2192" transform="translate(361.230469 0)"/>
     <use xlink:href="#DejaVuSansMono-20" transform="translate(421.435547 0)"/>
     <use xlink:href="#DejaVuSansMono-62" transform="translate(481.640625 0)"/>
     <use xlink:href="#DejaVuSansMono-69" transform="translate(541.845703 0)"/>
     <use xlink:href="#DejaVuSansMono-6e" transform="translate(602.050781 0)"/>
     <use xlink:href="#DejaVuSansMono-20" transform="translate(662.255859 0)"/>
     <use xlink:href="#DejaVuSansMono-34" transform="translate(722.460938 0)"/>
     <use xlink:href="#DejaVuSansMono-20" transform="translate(782.666016 0)"/>
     <use xlink:href="#DejaVuSansMono-20" transform="translate(842.871094 0)"/>
     <use xlink:href="#DejaVuSansMono-20" transform="translate(903.076172 0)"/>
     <use xlink:href="#DejaVuSansMono-76" transform="translate(963.28125 0)"/>
     <use xlink:href="#DejaVuSansMono-65" transform="translate(1023.486328 0)"/>
     <use xlink:href="#DejaVuSansMono-72" transform="translate(1083.691406 0)"/>
     <use xlink:href="#DejaVuSansMono-69" transform="translate(1143.896484 0)"/>
     <use xlink:href="#DejaVuSansMono-66" transform="translate(1204.101562 0)"/>
     <use xlink:href="#DejaVuSansMono-79" transform="translate(1264.306641 0)"/>
     <use xlink:href="#DejaVuSansMono-20" transform="translate(1324.511719 0)"/>
     <use xlink:href="#DejaVuSansMono-2192" transform="translate(1384.716797 0)"/>
     <use xlink:href="#DejaVuSansMono-20" transform="translate(1444.921875 0)"/>
     <use xlink:href="#DejaVuSansMono-62" transform="translate(1505.126953 0)"/>
     <use xlink:href="#DejaVuSansMono-69" transform="translate(1565.332031 0)"/>
     <use xlink:href="#DejaVuSansMono-6e" transform="translate(1625.537109 0)"/>
     <use xlink:href="#DejaVuSansMono-20" transform="translate(1685.742188 0)"/>
     <use xlink:href="#DejaVuSansMono-34" transform="translate(1745.947266 0)"/>
     <use xlink:href="#DejaVuSansMono-20" transform="translate(1806.152344 0)"/>
     <use xlink:href="#DejaVuSansMono-20" transform="translate(1866.357422 0)"/>
     <use xlink:href="#DejaVuSansMono-20" transform="translate(1926.5625 0)"/>
     <use xlink:href="#DejaVuSansMono-6d" transform="translate(1986.767578 0)"/>
     <use xlink:href="#DejaVuSansMono-61" transform="translate(2046.972656 0)"/>
     <use xlink:href="#DejaVuSansMono-74" transform="translate(2107.177734 0)"/>
     <use xlink:href="#DejaVuSansMono-63" transform="translate(2167.382812 0)"/>
     <use xlink:href="#DejaVuSansMono-68" transform="translate(2227.587891 0)"/>
    </g>
   </g>
   <g id="text_22">
    <!-- bin 1 -->
    <g style="fill: #666666" transform="translate(117.936013 166.332376) scale(0.07 -0.07)">
     <use xlink:href="#DejaVuSans-62"/>
     <use xlink:href="#DejaVuSans-69" transform="translate(63.476562 0)"/>
     <use xlink:href="#DejaVuSans-6e" transform="translate(91.259766 0)"/>
     <use xlink:href="#DejaVuSans-20" transform="translate(154.638672 0)"/>
     <use xlink:href="#DejaVuSans-31" transform="translate(186.425781 0)"/>
    </g>
   </g>
   <g id="text_23">
    <!-- bin 2 -->
    <g style="fill: #666666" transform="translate(202.810509 166.332376) scale(0.07 -0.07)">
     <use xlink:href="#DejaVuSans-62"/>
     <use xlink:href="#DejaVuSans-69" transform="translate(63.476562 0)"/>
     <use xlink:href="#DejaVuSans-6e" transform="translate(91.259766 0)"/>
     <use xlink:href="#DejaVuSans-20" transform="translate(154.638672 0)"/>
     <use xlink:href="#DejaVuSans-32" transform="translate(186.425781 0)"/>
    </g>
   </g>
   <g id="text_24">
    <!-- bin 3 -->
    <g style="fill: #666666" transform="translate(287.685005 166.332376) scale(0.07 -0.07)">
     <use xlink:href="#DejaVuSans-62"/>
     <use xlink:href="#DejaVuSans-69" transform="translate(63.476562 0)"/>
     <use xlink:href="#DejaVuSans-6e" transform="translate(91.259766 0)"/>
     <use xlink:href="#DejaVuSans-20" transform="translate(154.638672 0)"/>
     <use xlink:href="#DejaVuSans-33" transform="translate(186.425781 0)"/>
    </g>
   </g>
   <g id="text_25">
    <!-- bin 4 -->
    <g style="fill: #666666" transform="translate(372.559501 166.332376) scale(0.07 -0.07)">
     <use xlink:href="#DejaVuSans-62"/>
     <use xlink:href="#DejaVuSans-69" transform="translate(63.476562 0)"/>
     <use xlink:href="#DejaVuSans-6e" transform="translate(91.259766 0)"/>
     <use xlink:href="#DejaVuSans-20" transform="translate(154.638672 0)"/>
     <use xlink:href="#DejaVuSans-34" transform="translate(186.425781 0)"/>
    </g>
   </g>
   <g id="text_26">
    <!-- bin 5 -->
    <g style="fill: #666666" transform="translate(457.433997 166.332376) scale(0.07 -0.07)">
     <use xlink:href="#DejaVuSans-62"/>
     <use xlink:href="#DejaVuSans-69" transform="translate(63.476562 0)"/>
     <use xlink:href="#DejaVuSans-6e" transform="translate(91.259766 0)"/>
     <use xlink:href="#DejaVuSans-20" transform="translate(154.638672 0)"/>
     <use xlink:href="#DejaVuSans-35" transform="translate(186.425781 0)"/>
    </g>
   </g>
   <g id="text_27">
    <!-- offset = +0.00 -->
    <g transform="translate(7.2 166.884251) scale(0.09 -0.09)">
     <defs>
      <path id="DejaVuSans-2b" d="M 2944 4013 
L 2944 2272 
L 4684 2272 
L 4684 1741 
L 2944 1741 
L 2944 0 
L 2419 0 
L 2419 1741 
L 678 1741 
L 678 2272 
L 2419 2272 
L 2419 4013 
L 2944 4013 
z
" transform="scale(0.015625)"/>
     </defs>
     <use xlink:href="#DejaVuSans-6f"/>
     <use xlink:href="#DejaVuSans-66" transform="translate(61.181641 0)"/>
     <use xlink:href="#DejaVuSans-66" transform="translate(96.386719 0)"/>
     <use xlink:href="#DejaVuSans-73" transform="translate(131.591797 0)"/>
     <use xlink:href="#DejaVuSans-65" transform="translate(183.691406 0)"/>
     <use xlink:href="#DejaVuSans-74" transform="translate(245.214844 0)"/>
     <use xlink:href="#DejaVuSans-20" transform="translate(284.423828 0)"/>
     <use xlink:href="#DejaVuSans-3d" transform="translate(316.210938 0)"/>
     <use xlink:href="#DejaVuSans-20" transform="translate(400 0)"/>
     <use xlink:href="#DejaVuSans-2b" transform="translate(431.787109 0)"/>
     <use xlink:href="#DejaVuSans-30" transform="translate(515.576172 0)"/>
     <use xlink:href="#DejaVuSans-2e" transform="translate(579.199219 0)"/>
     <use xlink:href="#DejaVuSans-30" transform="translate(610.986328 0)"/>
     <use xlink:href="#DejaVuSans-30" transform="translate(674.609375 0)"/>
    </g>
   </g>
   <g id="text_28">
    <!-- enrol → bin 4   verify → bin 4   match -->
    <g style="fill: #0a7f2e" transform="translate(519.232198 166.908157) scale(0.09 -0.09)">
     <use xlink:href="#DejaVuSansMono-65"/>
     <use xlink:href="#DejaVuSansMono-6e" transform="translate(60.205078 0)"/>
     <use xlink:href="#DejaVuSansMono-72" transform="translate(120.410156 0)"/>
     <use xlink:href="#DejaVuSansMono-6f" transform="translate(180.615234 0)"/>
     <use xlink:href="#DejaVuSansMono-6c" transform="translate(240.820312 0)"/>
     <use xlink:href="#DejaVuSansMono-20" transform="translate(301.025391 0)"/>
     <use xlink:href="#DejaVuSansMono-2192" transform="translate(361.230469 0)"/>
     <use xlink:href="#DejaVuSansMono-20" transform="translate(421.435547 0)"/>
     <use xlink:href="#DejaVuSansMono-62" transform="translate(481.640625 0)"/>
     <use xlink:href="#DejaVuSansMono-69" transform="translate(541.845703 0)"/>
     <use xlink:href="#DejaVuSansMono-6e" transform="translate(602.050781 0)"/>
     <use xlink:href="#DejaVuSansMono-20" transform="translate(662.255859 0)"/>
     <use xlink:href="#DejaVuSansMono-34" transform="translate(722.460938 0)"/>
     <use xlink:href="#DejaVuSansMono-20" transform="translate(782.666016 0)"/>
     <use xlink:href="#DejaVuSansMono-20" transform="translate(842.871094 0)"/>
     <use xlink:href="#DejaVuSansMono-20" transform="translate(903.076172 0)"/>
     <use xlink:href="#DejaVuSansMono-76" transform="translate(963.28125 0)"/>
     <use xlink:href="#DejaVuSansMono-65" transform="translate(1023.486328 0)"/>
     <use xlink:href="#DejaVuSansMono-72" transform="translate(1083.691406 0)"/>
     <use xlink:href="#DejaVuSansMono-69" transform="translate(1143.896484 0)"/>
     <use xlink:href="#DejaVuSansMono-66" transform="translate(1204.101562 0)"/>
     <use xlink:href="#DejaVuSansMono-79" transform="translate(1264.306641 0)"/>
     <use xlink:href="#DejaVuSansMono-20" transform="translate(1324.511719 0)"/>
     <use xlink:href="#DejaVuSansMono-2192" transform="translate(1384.716797 0)"/>
     <use xlink:href="#DejaVuSansMono-20" transform="translate(1444.921875 0)"/>
     <use xlink:href="#DejaVuSansMono-62" transform="translate(1505.126953 0)"/>
     <use xlink:href="#DejaVuSansMono-69" transform="translate(1565.332031 0)"/>
     <use xlink:href="#DejaVuSansMono-6e" transform="translate(1625.537109 0)"/>
     <use xlink:href="#DejaVuSansMono-20" transform="translate(1685.742188 0)"/>
     <use xlink:href="#DejaVuSansMono-34" transform="translate(1745.947266 0)"/>
     <use xlink:href="#DejaVuSansMono-20" transform="translate(1806.152344 0)"/>
     <use xlink:href="#DejaVuSansMono-20" transform="translate(1866.357422 0)"/>
     <use xlink:href="#DejaVuSansMono-20" transform="translate(1926.5625 0)"/>
     <use xlink:href="#DejaVuSansMono-6d" transform="translate(1986.767578 0)"/>
     <use xlink:href="#DejaVuSansMono-61" transform="translate(2046.972656 0)"/>
     <use xlink:href="#DejaVuSansMono-74" transform="translate(2107.177734 0)"/>
     <use xlink:href="#DejaVuSansMono-63" transform="translate(2167.382812 0)"/>
     <use xlink:href="#DejaVuSansMono-68" transform="translate(2227.587891 0)"/>
    </g>
   </g>
   <g id="text_29">
    <!-- bin 1 -->
    <g style="fill: #666666" transform="translate(133.849981 113.862277) scale(0.07 -0.07)">
     <use xlink:href="#DejaVuSans-62"/>
     <use xlink:href="#DejaVuSans-69" transform="translate(63.476562 0)"/>
     <use xlink:href="#DejaVuSans-6e" transform="translate(91.259766 0)"/>
     <use xlink:href="#DejaVuSans-20" transform="translate(154.638672 0)"/>
     <use xlink:href="#DejaVuSans-31" transform="translate(186.425781 0)"/>
    </g>
   </g>
   <g id="text_30">
    <!-- bin 2 -->
    <g style="fill: #666666" transform="translate(218.724477 113.862277) scale(0.07 -0.07)">
     <use xlink:href="#DejaVuSans-62"/>
     <use xlink:href="#DejaVuSans-69" transform="translate(63.476562 0)"/>
     <use xlink:href="#DejaVuSans-6e" transform="translate(91.259766 0)"/>
     <use xlink:href="#DejaVuSans-20" transform="translate(154.638672 0)"/>
     <use xlink:href="#DejaVuSans-32" transform="translate(186.425781 0)"/>
    </g>
   </g>
   <g id="text_31">
    <!-- bin 3 -->
    <g style="fill: #666666" transform="translate(303.598973 113.862277) scale(0.07 -0.07)">
     <use xlink:href="#DejaVuSans-62"/>
     <use xlink:href="#DejaVuSans-69" transform="translate(63.476562 0)"/>
     <use xlink:href="#DejaVuSans-6e" transform="translate(91.259766 0)"/>
     <use xlink:href="#DejaVuSans-20" transform="translate(154.638672 0)"/>
     <use xlink:href="#DejaVuSans-33" transform="translate(186.425781 0)"/>
    </g>
   </g>
   <g id="text_32">
    <!-- bin 4 -->
    <g style="fill: #666666" transform="translate(388.473469 113.862277) scale(0.07 -0.07)">
     <use xlink:href="#DejaVuSans-62"/>
     <use xlink:href="#DejaVuSans-69" transform="translate(63.476562 0)"/>
     <use xlink:href="#DejaVuSans-6e" transform="translate(91.259766 0)"/>
     <use xlink:href="#DejaVuSans-20" transform="translate(154.638672 0)"/>
     <use xlink:href="#DejaVuSans-34" transform="translate(186.425781 0)"/>
    </g>
   </g>
   <g id="text_33">
    <!-- bin 5 -->
    <g style="fill: #666666" transform="translate(465.390981 113.862277) scale(0.07 -0.07)">
     <use xlink:href="#DejaVuSans-62"/>
     <use xlink:href="#DejaVuSans-69" transform="translate(63.476562 0)"/>
     <use xlink:href="#DejaVuSans-6e" transform="translate(91.259766 0)"/>
     <use xlink:href="#DejaVuSans-20" transform="translate(154.638672 0)"/>
     <use xlink:href="#DejaVuSans-35" transform="translate(186.425781 0)"/>
    </g>
   </g>
   <g id="text_34">
    <!-- offset = +0.07 -->
    <g transform="translate(7.2 114.414152) scale(0.09 -0.09)">
     <use xlink:href="#DejaVuSans-6f"/>
     <use xlink:href="#DejaVuSans-66" transform="translate(61.181641 0)"/>
     <use xlink:href="#DejaVuSans-66" transform="translate(96.386719 0)"/>
     <use xlink:href="#DejaVuSans-73" transform="translate(131.591797 0)"/>
     <use xlink:href="#DejaVuSans-65" transform="translate(183.691406 0)"/>
     <use xlink:href="#DejaVuSans-74" transform="translate(245.214844 0)"/>
     <use xlink:href="#DejaVuSans-20" transform="translate(284.423828 0)"/>
     <use xlink:href="#DejaVuSans-3d" transform="translate(316.210938 0)"/>
     <use xlink:href="#DejaVuSans-20" transform="translate(400 0)"/>
     <use xlink:href="#DejaVuSans-2b" transform="translate(431.787109 0)"/>
     <use xlink:href="#DejaVuSans-30" transform="translate(515.576172 0)"/>
     <use xlink:href="#DejaVuSans-2e" transform="translate(579.199219 0)"/>
     <use xlink:href="#DejaVuSans-30" transform="translate(610.986328 0)"/>
     <use xlink:href="#DejaVuSans-37" transform="translate(674.609375 0)"/>
    </g>
   </g>
   <g id="text_35">
    <!-- enrol → bin 4   verify → bin 4   match -->
    <g style="fill: #0a7f2e" transform="translate(519.232198 114.438058) scale(0.09 -0.09)">
     <use xlink:href="#DejaVuSansMono-65"/>
     <use xlink:href="#DejaVuSansMono-6e" transform="translate(60.205078 0)"/>
     <use xlink:href="#DejaVuSansMono-72" transform="translate(120.410156 0)"/>
     <use xlink:href="#DejaVuSansMono-6f" transform="translate(180.615234 0)"/>
     <use xlink:href="#DejaVuSansMono-6c" transform="translate(240.820312 0)"/>
     <use xlink:href="#DejaVuSansMono-20" transform="translate(301.025391 0)"/>
     <use xlink:href="#DejaVuSansMono-2192" transform="translate(361.230469 0)"/>
     <use xlink:href="#DejaVuSansMono-20" transform="translate(421.435547 0)"/>
     <use xlink:href="#DejaVuSansMono-62" transform="translate(481.640625 0)"/>
     <use xlink:href="#DejaVuSansMono-69" transform="translate(541.845703 0)"/>
     <use xlink:href="#DejaVuSansMono-6e" transform="translate(602.050781 0)"/>
     <use xlink:href="#DejaVuSansMono-20" transform="translate(662.255859 0)"/>
     <use xlink:href="#DejaVuSansMono-34" transform="translate(722.460938 0)"/>
     <use xlink:href="#DejaVuSansMono-20" transform="translate(782.666016 0)"/>
     <use xlink:href="#DejaVuSansMono-20" transform="translate(842.871094 0)"/>
     <use xlink:href="#DejaVuSansMono-20" transform="translate(903.076172 0)"/>
     <use xlink:href="#DejaVuSansMono-76" transform="translate(963.28125 0)"/>
     <use xlink:href="#DejaVuSansMono-65" transform="translate(1023.486328 0)"/>
     <use xlink:href="#DejaVuSansMono-72" transform="translate(1083.691406 0)"/>
     <use xlink:href="#DejaVuSansMono-69" transform="translate(1143.896484 0)"/>
     <use xlink:href="#DejaVuSansMono-66" transform="translate(1204.101562 0)"/>
     <use xlink:href="#DejaVuSansMono-79" transform="translate(1264.306641 0)"/>
     <use xlink:href="#DejaVuSansMono-20" transform="translate(1324.511719 0)"/>
     <use xlink:href="#DejaVuSansMono-2192" transform="translate(1384.716797 0)"/>
     <use xlink:href="#DejaVuSansMono-20" transform="translate(1444.921875 0)"/>
     <use xlink:href="#DejaVuSansMono-62" transform="translate(1505.126953 0)"/>
     <use xlink:href="#DejaVuSansMono-69" transform="translate(1565.332031 0)"/>
     <use xlink:href="#DejaVuSansMono-6e" transform="translate(1625.537109 0)"/>
     <use xlink:href="#DejaVuSansMono-20" transform="translate(1685.742188 0)"/>
     <use xlink:href="#DejaVuSansMono-34" transform="translate(1745.947266 0)"/>
     <use xlink:href="#DejaVuSansMono-20" transform="translate(1806.152344 0)"/>
     <use xlink:href="#DejaVuSansMono-20" transform="translate(1866.357422 0)"/>
     <use xlink:href="#DejaVuSansMono-20" transform="translate(1926.5625 0)"/>
     <use xlink:href="#DejaVuSansMono-6d" transform="translate(1986.767578 0)"/>
     <use xlink:href="#DejaVuSansMono-61" transform="translate(2046.972656 0)"/>
     <use xlink:href="#DejaVuSansMono-74" transform="translate(2107.177734 0)"/>
     <use xlink:href="#DejaVuSansMono-63" transform="translate(2167.382812 0)"/>
     <use xlink:href="#DejaVuSansMono-68" transform="translate(2227.587891 0)"/>
    </g>
   </g>
   <g id="text_36">
    <!-- bin 1 -->
    <g style="fill: #666666" transform="translate(149.763949 61.392178) scale(0.07 -0.07)">
     <use xlink:href="#DejaVuSans-62"/>
     <use xlink:href="#DejaVuSans-69" transform="translate(63.476562 0)"/>
     <use xlink:href="#DejaVuSans-6e" transform="translate(91.259766 0)"/>
     <use xlink:href="#DejaVuSans-20" transform="translate(154.638672 0)"/>
     <use xlink:href="#DejaVuSans-31" transform="translate(186.425781 0)"/>
    </g>
   </g>
   <g id="text_37">
    <!-- bin 2 -->
    <g style="fill: #666666" transform="translate(234.638445 61.392178) scale(0.07 -0.07)">
     <use xlink:href="#DejaVuSans-62"/>
     <use xlink:href="#DejaVuSans-69" transform="translate(63.476562 0)"/>
     <use xlink:href="#DejaVuSans-6e" transform="translate(91.259766 0)"/>
     <use xlink:href="#DejaVuSans-20" transform="translate(154.638672 0)"/>
     <use xlink:href="#DejaVuSans-32" transform="translate(186.425781 0)"/>
    </g>
   </g>
   <g id="text_38">
    <!-- bin 3 -->
    <g style="fill: #666666" transform="translate(319.512941 61.392178) scale(0.07 -0.07)">
     <use xlink:href="#DejaVuSans-62"/>
     <use xlink:href="#DejaVuSans-69" transform="translate(63.476562 0)"/>
     <use xlink:href="#DejaVuSans-6e" transform="translate(91.259766 0)"/>
     <use xlink:href="#DejaVuSans-20" transform="translate(154.638672 0)"/>
     <use xlink:href="#DejaVuSans-33" transform="translate(186.425781 0)"/>
    </g>
   </g>
   <g id="text_39">
    <!-- bin 4 -->
    <g style="fill: #666666" transform="translate(404.387437 61.392178) scale(0.07 -0.07)">
     <use xlink:href="#DejaVuSans-62"/>
     <use xlink:href="#DejaVuSans-69" transform="translate(63.476562 0)"/>
     <use xlink:href="#DejaVuSans-6e" transform="translate(91.259766 0)"/>
     <use xlink:href="#DejaVuSans-20" transform="translate(154.638672 0)"/>
     <use xlink:href="#DejaVuSans-34" transform="translate(186.425781 0)"/>
    </g>
   </g>
   <g id="text_40">
    <!-- bin 5 -->
    <g style="fill: #666666" transform="translate(473.347965 61.392178) scale(0.07 -0.07)">
     <use xlink:href="#DejaVuSans-62"/>
     <use xlink:href="#DejaVuSans-69" transform="translate(63.476562 0)"/>
     <use xlink:href="#DejaVuSans-6e" transform="translate(91.259766 0)"/>
     <use xlink:href="#DejaVuSans-20" transform="translate(154.638672 0)"/>
     <use xlink:href="#DejaVuSans-35" transform="translate(186.425781 0)"/>
    </g>
   </g>
   <g id="text_41">
    <!-- offset = +0.15 -->
    <g transform="translate(7.2 61.944053) scale(0.09 -0.09)">
     <use xlink:href="#DejaVuSans-6f"/>
     <use xlink:href="#DejaVuSans-66" transform="translate(61.181641 0)"/>
     <use xlink:href="#DejaVuSans-66" transform="translate(96.386719 0)"/>
     <use xlink:href="#DejaVuSans-73" transform="translate(131.591797 0)"/>
     <use xlink:href="#DejaVuSans-65" transform="translate(183.691406 0)"/>
     <use xlink:href="#DejaVuSans-74" transform="translate(245.214844 0)"/>
     <use xlink:href="#DejaVuSans-20" transform="translate(284.423828 0)"/>
     <use xlink:href="#DejaVuSans-3d" transform="translate(316.210938 0)"/>
     <use xlink:href="#DejaVuSans-20" transform="translate(400 0)"/>
     <use xlink:href="#DejaVuSans-2b" transform="translate(431.787109 0)"/>
     <use xlink:href="#DejaVuSans-30" transform="translate(515.576172 0)"/>
     <use xlink:href="#DejaVuSans-2e" transform="translate(579.199219 0)"/>
     <use xlink:href="#DejaVuSans-31" transform="translate(610.986328 0)"/>
     <use xlink:href="#DejaVuSans-35" transform="translate(674.609375 0)"/>
    </g>
   </g>
   <g id="text_42">
    <!-- enrol → bin 4   verify → bin 4   match -->
    <g style="fill: #0a7f2e" transform="translate(519.232198 61.967959) scale(0.09 -0.09)">
     <use xlink:href="#DejaVuSansMono-65"/>
     <use xlink:href="#DejaVuSansMono-6e" transform="translate(60.205078 0)"/>
     <use xlink:href="#DejaVuSansMono-72" transform="translate(120.410156 0)"/>
     <use xlink:href="#DejaVuSansMono-6f" transform="translate(180.615234 0)"/>
     <use xlink:href="#DejaVuSansMono-6c" transform="translate(240.820312 0)"/>
     <use xlink:href="#DejaVuSansMono-20" transform="translate(301.025391 0)"/>
     <use xlink:href="#DejaVuSansMono-2192" transform="translate(361.230469 0)"/>
     <use xlink:href="#DejaVuSansMono-20" transform="translate(421.435547 0)"/>
     <use xlink:href="#DejaVuSansMono-62" transform="translate(481.640625 0)"/>
     <use xlink:href="#DejaVuSansMono-69" transform="translate(541.845703 0)"/>
     <use xlink:href="#DejaVuSansMono-6e" transform="translate(602.050781 0)"/>
     <use xlink:href="#DejaVuSansMono-20" transform="translate(662.255859 0)"/>
     <use xlink:href="#DejaVuSansMono-34" transform="translate(722.460938 0)"/>
     <use xlink:href="#DejaVuSansMono-20" transform="translate(782.666016 0)"/>
     <use xlink:href="#DejaVuSansMono-20" transform="translate(842.871094 0)"/>
     <use xlink:href="#DejaVuSansMono-20" transform="translate(903.076172 0)"/>
     <use xlink:href="#DejaVuSansMono-76" transform="translate(963.28125 0)"/>
     <use xlink:href="#DejaVuSansMono-65" transform="translate(1023.486328 0)"/>
     <use xlink:href="#DejaVuSansMono-72" transform="translate(1083.691406 0)"/>
     <use xlink:href="#DejaVuSansMono-69" transform="translate(1143.896484 0)"/>
     <use xlink:href="#DejaVuSansMono-66" transform="translate(1204.101562 0)"/>
     <use xlink:href="#DejaVuSansMono-79" transform="translate(1264.306641 0)"/>
     <use xlink:href="#DejaVuSansMono-20" transform="translate(1324.511719 0)"/>
     <use xlink:href="#DejaVuSansMono-2192" transform="translate(1384.716797 0)"/>
     <use xlink:href="#DejaVuSansMono-20" transform="translate(1444.921875 0)"/>
     <use xlink:href="#DejaVuSansMono-62" transform="translate(1505.126953 0)"/>
     <use xlink:href="#DejaVuSansMono-69" transform="translate(1565.332031 0)"/>
     <use xlink:href="#DejaVuSansMono-6e" transform="translate(1625.537109 0)"/>
     <use xlink:href="#DejaVuSansMono-20" transform="translate(1685.742188 0)"/>
     <use xlink:href="#DejaVuSansMono-34" transform="translate(1745.947266 0)"/>
     <use xlink:href="#DejaVuSansMono-20" transform="translate(1806.152344 0)"/>
     <use xlink:href="#DejaVuSansMono-20" transform="translate(1866.357422 0)"/>
     <use xlink:href="#DejaVuSansMono-20" transform="translate(1926.5625 0)"/>
     <use xlink:href="#DejaVuSansMono-6d" transform="translate(1986.767578 0)"/>
     <use xlink:href="#DejaVuSansMono-61" transform="translate(2046.972656 0)"/>
     <use xlink:href="#DejaVuSansMono-74" transform="translate(2107.177734 0)"/>
     <use xlink:href="#DejaVuSansMono-63" transform="translate(2167.382812 0)"/>
     <use xlink:href="#DejaVuSansMono-68" transform="translate(2227.587891 0)"/>
    </g>
   </g>
   <g id="text_43">
    <!-- Quantisation-offset grids: a drifted verifying value (×) still matches the enrolled value (●) under at least one offset -->
    <g transform="translate(43.221594 14.798437) scale(0.1 -0.1)">
     <defs>
      <path id="DejaVuSans-51" d="M 2522 4238 
Q 1834 4238 1429 3725 
Q 1025 3213 1025 2328 
Q 1025 1447 1429 934 
Q 1834 422 2522 422 
Q 3209 422 3611 934 
Q 4013 1447 4013 2328 
Q 4013 3213 3611 3725 
Q 3209 4238 2522 4238 
z
M 3406 84 
L 4238 -825 
L 3475 -825 
L 2784 -78 
Q 2681 -84 2626 -87 
Q 2572 -91 2522 -91 
Q 1538 -91 948 567 
Q 359 1225 359 2328 
Q 359 3434 948 4092 
Q 1538 4750 2522 4750 
Q 3503 4750 4090 4092 
Q 4678 3434 4678 2328 
Q 4678 1516 4351 937 
Q 4025 359 3406 84 
z
" transform="scale(0.015625)"/>
      <path id="DejaVuSans-64" d="M 2906 2969 
L 2906 4863 
L 3481 4863 
L 3481 0 
L 2906 0 
L 2906 525 
Q 2725 213 2448 61 
Q 2172 -91 1784 -91 
Q 1150 -91 751 415 
Q 353 922 353 1747 
Q 353 2572 751 3078 
Q 1150 3584 1784 3584 
Q 2172 3584 2448 3432 
Q 2725 3281 2906 2969 
z
M 947 1747 
Q 947 1113 1208 752 
Q 1469 391 1925 391 
Q 2381 391 2643 752 
Q 2906 1113 2906 1747 
Q 2906 2381 2643 2742 
Q 2381 3103 1925 3103 
Q 1469 3103 1208 2742 
Q 947 2381 947 1747 
z
" transform="scale(0.015625)"/>
      <path id="DejaVuSans-3a" d="M 750 794 
L 1409 794 
L 1409 0 
L 750 0 
L 750 794 
z
M 750 3309 
L 1409 3309 
L 1409 2516 
L 750 2516 
L 750 3309 
z
" transform="scale(0.015625)"/>
      <path id="DejaVuSans-79" d="M 2059 -325 
Q 1816 -950 1584 -1140 
Q 1353 -1331 966 -1331 
L 506 -1331 
L 506 -850 
L 844 -850 
Q 1081 -850 1212 -737 
Q 1344 -625 1503 -206 
L 1606 56 
L 191 3500 
L 800 3500 
L 1894 763 
L 2988 3500 
L 3597 3500 
L 2059 -325 
z
" transform="scale(0.015625)"/>
      <path id="DejaVuSans-d7" d="M 4488 3438 
L 3059 2003 
L 4488 575 
L 4116 197 
L 2681 1631 
L 1247 197 
L 878 575 
L 2303 2003 
L 878 3438 
L 1247 3816 
L 2681 2381 
L 4116 3816 
L 4488 3438 
z
" transform="scale(0.015625)"/>
      <path id="DejaVuSans-68" d="M 3513 2113 
L 3513 0 
L 2938 0 
L 2938 2094 
Q 2938 2591 2744 2837 
Q 2550 3084 2163 3084 
Q 1697 3084 1428 2787 
Q 1159 2491 1159 1978 
L 1159 0 
L 581 0 
L 581 4863 
L 1159 4863 
L 1159 2956 
Q 1366 3272 1645 3428 
Q 1925 3584 2291 3584 
Q 2894 3584 3203 3211 
Q 3513 2838 3513 2113 
z
" transform="scale(0.015625)"/>
      <path id="DejaVuSans-25cf" d="M 350 1656 
Q 350 2309 678 2878 
Q 1003 3444 1572 3772 
Q 2138 4100 2794 4100 
Q 3447 4100 4013 3772 
Q 4581 3444 4906 2878 
Q 5234 2309 5234 1656 
Q 5234 1003 4906 434 
Q 4581 -131 4013 -459 
Q 3447 -788 2794 -788 
Q 2138 -788 1572 -459 
Q 1003 -131 678 434 
Q 350 1003 350 1656 
z
" transform="scale(0.015625)"/>
     </defs>
     <use xlink:href="#DejaVuSans-51"/>
     <use xlink:href="#DejaVuSans-75" transform="translate(78.710938 0)"/>
     <use xlink:href="#DejaVuSans-61" transform="translate(142.089844 0)"/>
     <use xlink:href="#DejaVuSans-6e" transform="translate(203.369141 0)"/>
     <use xlink:href="#DejaVuSans-74" transform="translate(266.748047 0)"/>
     <use xlink:href="#DejaVuSans-69" transform="translate(305.957031 0)"/>
     <use xlink:href="#DejaVuSans-73" transform="translate(333.740234 0)"/>
     <use xlink:href="#DejaVuSans-61" transform="translate(385.839844 0)"/>
     <use xlink:href="#DejaVuSans-74" transform="translate(447.119141 0)"/>
     <use xlink:href="#DejaVuSans-69" transform="translate(486.328125 0)"/>
     <use xlink:href="#DejaVuSans-6f" transform="translate(514.111328 0)"/>
     <use xlink:href="#DejaVuSans-6e" transform="translate(575.292969 0)"/>
     <use xlink:href="#DejaVuSans-2d" transform="translate(638.671875 0)"/>
     <use xlink:href="#DejaVuSans-6f" transform="translate(676.630859 0)"/>
     <use xlink:href="#DejaVuSans-66" transform="translate(737.8125 0)"/>
     <use xlink:href="#DejaVuSans-66" transform="translate(773.017578 0)"/>
     <use xlink:href="#DejaVuSans-73" transform="translate(808.222656 0)"/>
     <use xlink:href="#DejaVuSans-65" transform="translate(860.322266 0)"/>
     <use xlink:href="#DejaVuSans-74" transform="translate(921.845703 0)"/>
     <use xlink:href="#DejaVuSans-20" transform="translate(961.054688 0)"/>
     <use xlink:href="#DejaVuSans-67" transform="translate(992.841797 0)"/>
     <use xlink:href="#DejaVuSans-72" transform="translate(1056.318359 0)"/>
     <use xlink:href="#DejaVuSans-69" transform="translate(1097.431641 0)"/>
     <use xlink:href="#DejaVuSans-64" transform="translate(1125.214844 0)"/>
     <use xlink:href="#DejaVuSans-73" transform="translate(1188.691406 0)"/>
     <use xlink:href="#DejaVuSans-3a" transform="translate(1240.791016 0)"/>
     <use xlink:href="#DejaVuSans-20" transform="translate(1274.482422 0)"/>
     <use xlink:href="#DejaVuSans-61" transform="translate(1306.269531 0)"/>
     <use xlink:href="#DejaVuSans-20" transform="translate(1367.548828 0)"/>
     <use xlink:href="#DejaVuSans-64" transform="translate(1399.335938 0)"/>
     <use xlink:href="#DejaVuSans-72" transform="translate(1462.8125 0)"/>
     <use xlink:href="#DejaVuSans-69" transform="translate(1503.925781 0)"/>
     <use xlink:href="#DejaVuSans-66" transform="translate(1531.708984 0)"/>
     <use xlink:href="#DejaVuSans-74" transform="translate(1565.164062 0)"/>
     <use xlink:href="#DejaVuSans-65" transform="translate(1604.373047 0)"/>
     <use xlink:href="#DejaVuSans-64" transform="translate(1665.896484 0)"/>
     <use xlink:href="#DejaVuSans-20" transform="translate(1729.373047 0)"/>
     <use xlink:href="#DejaVuSans-76" transform="translate(1761.160156 0)"/>
     <use xlink:href="#DejaVuSans-65" transform="translate(1820.339844 0)"/>
     <use xlink:href="#DejaVuSans-72" transform="translate(1881.863281 0)"/>
     <use xlink:href="#DejaVuSans-69" transform="translate(1922.976562 0)"/>
     <use xlink:href="#DejaVuSans-66" transform="translate(1950.759766 0)"/>
     <use xlink:href="#DejaVuSans-79" transform="translate(1984.214844 0)"/>
     <use xlink:href="#DejaVuSans-69" transform="translate(2043.394531 0)"/>
     <use xlink:href="#DejaVuSans-6e" transform="translate(2071.177734 0)"/>
     <use xlink:href="#DejaVuSans-67" transform="translate(2134.556641 0)"/>
     <use xlink:href="#DejaVuSans-20" transform="translate(2198.033203 0)"/>
     <use xlink:href="#DejaVuSans-76" transform="translate(2229.820312 0)"/>
     <use xlink:href="#DejaVuSans-61" transform="translate(2289 0)"/>
     <use xlink:href="#DejaVuSans-6c" transform="translate(2350.279297 0)"/>
     <use xlink:href="#DejaVuSans-75" transform="translate(2378.0625 0)"/>
     <use xlink:href="#DejaVuSans-65" transform="translate(2441.441406 0)"/>
     <use xlink:href="#DejaVuSans-20" transform="translate(2502.964844 0)"/>
     <use xlink:href="#DejaVuSans-28" transform="translate(2534.751953 0)"/>
     <use xlink:href="#DejaVuSans-d7" transform="translate(2573.765625 0)"/>
     <use xlink:href="#DejaVuSans-29" transform="translate(2657.554688 0)"/>
     <use xlink:href="#DejaVuSans-20" transform="translate(2696.568359 0)"/>
     <use xlink:href="#DejaVuSans-73" transform="translate(2728.355469 0)"/>
     <use xlink:href="#DejaVuSans-74" transform="translate(2780.455078 0)"/>
     <use xlink:href="#DejaVuSans-69" transform="translate(2819.664062 0)"/>
     <use xlink:href="#DejaVuSans-6c" transform="translate(2847.447266 0)"/>
     <use xlink:href="#DejaVuSans-6c" transform="translate(2875.230469 0)"/>
     <use xlink:href="#DejaVuSans-20" transform="translate(2903.013672 0)"/>
     <use xlink:href="#DejaVuSans-6d" transform="translate(2934.800781 0)"/>
     <use xlink:href="#DejaVuSans-61" transform="translate(3032.212891 0)"/>
     <use xlink:href="#DejaVuSans-74" transform="translate(3093.492188 0)"/>
     <use xlink:href="#DejaVuSans-63" transform="translate(3132.701172 0)"/>
     <use xlink:href="#DejaVuSans-68" transform="translate(3187.681641 0)"/>
     <use xlink:href="#DejaVuSans-65" transform="translate(3251.060547 0)"/>
     <use xlink:href="#DejaVuSans-73" transform="translate(3312.583984 0)"/>
     <use xlink:href="#DejaVuSans-20" transform="translate(3364.683594 0)"/>
     <use xlink:href="#DejaVuSans-74" transform="translate(3396.470703 0)"/>
     <use xlink:href="#DejaVuSans-68" transform="translate(3435.679688 0)"/>
     <use xlink:href="#DejaVuSans-65" transform="translate(3499.058594 0)"/>
     <use xlink:href="#DejaVuSans-20" transform="translate(3560.582031 0)"/>
     <use xlink:href="#DejaVuSans-65" transform="translate(3592.369141 0)"/>
     <use xlink:href="#DejaVuSans-6e" transform="translate(3653.892578 0)"/>
     <use xlink:href="#DejaVuSans-72" transform="translate(3717.271484 0)"/>
     <use xlink:href="#DejaVuSans-6f" transform="translate(3756.134766 0)"/>
     <use xlink:href="#DejaVuSans-6c" transform="translate(3817.316406 0)"/>
     <use xlink:href="#DejaVuSans-6c" transform="translate(3845.099609 0)"/>
     <use xlink:href="#DejaVuSans-65" transform="translate(3872.882812 0)"/>
     <use xlink:href="#DejaVuSans-64" transform="translate(3934.40625 0)"/>
     <use xlink:href="#DejaVuSans-20" transform="translate(3997.882812 0)"/>
     <use xlink:href="#DejaVuSans-76" transform="translate(4029.669922 0)"/>
     <use xlink:href="#DejaVuSans-61" transform="translate(4088.849609 0)"/>
     <use xlink:href="#DejaVuSans-6c" transform="translate(4150.128906 0)"/>
     <use xlink:href="#DejaVuSans-75" transform="translate(4177.912109 0)"/>
     <use xlink:href="#DejaVuSans-65" transform="translate(4241.291016 0)"/>
     <use xlink:href="#DejaVuSans-20" transform="translate(4302.814453 0)"/>
     <use xlink:href="#DejaVuSans-28" transform="translate(4334.601562 0)"/>
     <use xlink:href="#DejaVuSans-25cf" transform="translate(4373.615234 0)"/>
     <use xlink:href="#DejaVuSans-29" transform="translate(4460.871094 0)"/>
     <use xlink:href="#DejaVuSans-20" transform="translate(4499.884766 0)"/>
     <use xlink:href="#DejaVuSans-75" transform="translate(4531.671875 0)"/>
     <use xlink:href="#DejaVuSans-6e" transform="translate(4595.050781 0)"/>
     <use xlink:href="#DejaVuSans-64" transform="translate(4658.429688 0)"/>
     <use xlink:href="#DejaVuSans-65" transform="translate(4721.90625 0)"/>
     <use xlink:href="#DejaVuSans-72" transform="translate(4783.429688 0)"/>
     <use xlink:href="#DejaVuSans-20" transform="translate(4824.542969 0)"/>
     <use xlink:href="#DejaVuSans-61" transform="translate(4856.330078 0)"/>
     <use xlink:href="#DejaVuSans-74" transform="translate(4917.609375 0)"/>
     <use xlink:href="#DejaVuSans-20" transform="translate(4956.818359 0)"/>
     <use xlink:href="#DejaVuSans-6c" transform="translate(4988.605469 0)"/>
     <use xlink:href="#DejaVuSans-65" transform="translate(5016.388672 0)"/>
     <use xlink:href="#DejaVuSans-61" transform="translate(5077.912109 0)"/>
     <use xlink:href="#DejaVuSans-73" transform="translate(5139.191406 0)"/>
     <use xlink:href="#DejaVuSans-74" transform="translate(5191.291016 0)"/>
     <use xlink:href="#DejaVuSans-20" transform="translate(5230.5 0)"/>
     <use xlink:href="#DejaVuSans-6f" transform="translate(5262.287109 0)"/>
     <use xlink:href="#DejaVuSans-6e" transform="translate(5323.46875 0)"/>
     <use xlink:href="#DejaVuSans-65" transform="translate(5386.847656 0)"/>
     <use xlink:href="#DejaVuSans-20" transform="translate(5448.371094 0)"/>
     <use xlink:href="#DejaVuSans-6f" transform="translate(5480.158203 0)"/>
     <use xlink:href="#DejaVuSans-66" transform="translate(5541.339844 0)"/>
     <use xlink:href="#DejaVuSans-66" transform="translate(5576.544922 0)"/>
     <use xlink:href="#DejaVuSans-73" transform="translate(5611.75 0)"/>
     <use xlink:href="#DejaVuSans-65" transform="translate(5663.849609 0)"/>
     <use xlink:href="#DejaVuSans-74" transform="translate(5725.373047 0)"/>
    </g>
   </g>
   <g id="legend_1">
    <g id="line2d_17">
     <g>
      <use xlink:href="#m48194b5177" x="561.630317" y="31.277187" style="stroke: #000000"/>
     </g>
    </g>
    <g id="text_44">
     <!-- enrolled F -->
     <g transform="translate(576.030317 34.077187) scale(0.08 -0.08)">
      <use xlink:href="#DejaVuSans-65"/>
      <use xlink:href="#DejaVuSans-6e" transform="translate(61.523438 0)"/>
      <use xlink:href="#DejaVuSans-72" transform="translate(124.902344 0)"/>
      <use xlink:href="#DejaVuSans-6f" transform="translate(163.765625 0)"/>
      <use xlink:href="#DejaVuSans-6c" transform="translate(224.947266 0)"/>
      <use xlink:href="#DejaVuSans-6c" transform="translate(252.730469 0)"/>
      <use xlink:href="#DejaVuSans-65" transform="translate(280.513672 0)"/>
      <use xlink:href="#DejaVuSans-64" transform="translate(342.037109 0)"/>
      <use xlink:href="#DejaVuSans-20" transform="translate(405.513672 0)"/>
      <use xlink:href="#DejaVuSans-46" transform="translate(437.300781 0)"/>
     </g>
    </g>
    <g id="line2d_18">
     <g>
      <use xlink:href="#md95156a515" x="561.630317" y="43.019687" style="stroke: #000000; stroke-width: 2"/>
     </g>
    </g>
    <g id="text_45">
     <!-- verifying F -->
     <g transform="translate(576.030317 45.819687) scale(0.08 -0.08)">
      <use xlink:href="#DejaVuSans-76"/>
      <use xlink:href="#DejaVuSans-65" transform="translate(59.179688 0)"/>
      <use xlink:href="#DejaVuSans-72" transform="translate(120.703125 0)"/>
      <use xlink:href="#DejaVuSans-69" transform="translate(161.816406 0)"/>
      <use xlink:href="#DejaVuSans-66" transform="translate(189.599609 0)"/>
      <use xlink:href="#DejaVuSans-79" transform="translate(223.054688 0)"/>
      <use xlink:href="#DejaVuSans-69" transform="translate(282.234375 0)"/>
      <use xlink:href="#DejaVuSans-6e" transform="translate(310.017578 0)"/>
      <use xlink:href="#DejaVuSans-67" transform="translate(373.396484 0)"/>
      <use xlink:href="#DejaVuSans-20" transform="translate(436.873047 0)"/>
      <use xlink:href="#DejaVuSans-46" transform="translate(468.660156 0)"/>
     </g>
    </g>
   </g>
  </g>
 </g>
 <defs>
  <clipPath id="p6ad2ebea04">
   <rect x="37.569433" y="20.798437" width="587.755884" height="278.92"/>
  </clipPath>
 </defs>
</svg>
